<?xml version="1.0" encoding="UTF-8"?>
<svg version="1.1" xmlns="http://www.w3.org/2000/svg" width="546" height="433">
<path d="M0 0 C180.18 0 360.36 0 546 0 C546 142.89 546 285.78 546 433 C365.82 433 185.64 433 0 433 C0 290.11 0 147.22 0 0 Z " fill="#FEFEFE" transform="translate(0,0)"/>
<path d="M0 0 C0 0.66 0 1.32 0 2 C3.3 2 6.6 2 10 2 C10 2.99 10 3.98 10 5 C11.65 5 13.3 5 15 5 C15 5.66 15 6.32 15 7 C17.64 7.33 20.28 7.66 23 8 C23 8.66 23 9.32 23 10 C24.65 10 26.3 10 28 10 C28 10.99 28 11.98 28 13 C29.65 13 31.3 13 33 13 C33 13.66 33 14.32 33 15 C33.763125 15.12375 34.52625 15.2475 35.3125 15.375 C38 16 38 16 41 18 C41 18.66 41 19.32 41 20 C41.66 20 42.32 20 43 20 C43 20.99 43 21.98 43 23 C43.99 23 44.98 23 46 23 C46 23.99 46 24.98 46 26 C46.66 26 47.32 26 48 26 C48 27.32 48 28.64 48 30 C46.35 30 44.7 30 43 30 C43 30.66 43 31.32 43 32 C38.52941176 36 38.52941176 36 36 36 C36 38.64 36 41.28 36 44 C35.01 44 34.02 44 33 44 C33 44.66 33 45.32 33 46 C32.34 46 31.68 46 31 46 C31 47.65 31 49.3 31 51 C30.01 51 29.02 51 28 51 C28 51.99 28 52.98 28 54 C26.35 54 24.7 54 23 54 C23 53.01 23 52.02 23 51 C22.34 51 21.68 51 21 51 C21 50.01 21 49.02 21 48 C19.02 48 17.04 48 15 48 C15 47.34 15 46.68 15 46 C11.04 45.34 7.08 44.68 3 44 C3 43.01 3 42.02 3 41 C-9.54 41 -22.08 41 -35 41 C-35 41.66 -35 42.32 -35 43 C-36.98 43.33 -38.96 43.66 -41 44 C-41 44.66 -41 45.32 -41 46 C-42.65 46 -44.3 46 -46 46 C-46 46.66 -46 47.32 -46 48 C-47.65 48 -49.3 48 -51 48 C-51 48.99 -51 49.98 -51 51 C-51.99 51 -52.98 51 -54 51 C-54 51.66 -54 52.32 -54 53 C-54.66 53 -55.32 53 -56 53 C-56 53.99 -56 54.98 -56 56 C-56.99 56 -57.98 56 -59 56 C-59 56.66 -59 57.32 -59 58 C-59.66 58 -60.32 58 -61 58 C-61 58.99 -61 59.98 -61 61 C-61.99 61 -62.98 61 -64 61 C-64 61.99 -64 62.98 -64 64 C-64.66 64 -65.32 64 -66 64 C-66 64.66 -66 65.32 -66 66 C-66.99 66 -67.98 66 -69 66 C-69 66.99 -69 67.98 -69 69 C-69.66 69 -70.32 69 -71 69 C-71 69.99 -71 70.98 -71 72 C-71.99 72 -72.98 72 -74 72 C-74 74.31 -74 76.62 -74 79 C-74.99 79 -75.98 79 -77 79 C-77 80.65 -77 82.3 -77 84 C-77.66 84 -78.32 84 -79 84 C-79 85.65 -79 87.3 -79 89 C-79.66 89 -80.32 89 -81 89 C-81 102.53 -81 116.06 -81 130 C-80.34 130 -79.68 130 -79 130 C-79 132.64 -79 135.28 -79 138 C-78.34 138 -77.68 138 -77 138 C-77 140.31 -77 142.62 -77 145 C-76.01 145 -75.02 145 -74 145 C-74 145.99 -74 146.98 -74 148 C-73.01 148 -72.02 148 -71 148 C-71 149.65 -71 151.3 -71 153 C-70.34 153 -69.68 153 -69 153 C-69 153.99 -69 154.98 -69 156 C-68.01 156 -67.02 156 -66 156 C-65.505 159.465 -65.505 159.465 -65 163 C-63.68 163 -62.36 163 -61 163 C-61 163.99 -61 164.98 -61 166 C-60.34 166 -59.68 166 -59 166 C-59 166.66 -59 167.32 -59 168 C-58.01 168 -57.02 168 -56 168 C-56 168.99 -56 169.98 -56 171 C-55.01 171 -54.02 171 -53 171 C-53 171.66 -53 172.32 -53 173 C-51.68 173.33 -50.36 173.66 -49 174 C-49 174.66 -49 175.32 -49 176 C-46.36 176 -43.72 176 -41 176 C-41 176.66 -41 177.32 -41 178 C-39.02 178.33 -37.04 178.66 -35 179 C-35 179.66 -35 180.32 -35 181 C-32.69 181 -30.38 181 -28 181 C-28 182.65 -28 184.3 -28 186 C-31.45831586 186.02894547 -34.91660072 186.04678 -38.375 186.0625 C-39.35984375 186.07087891 -40.3446875 186.07925781 -41.359375 186.08789062 C-42.30039063 186.09111328 -43.24140625 186.09433594 -44.2109375 186.09765625 C-45.08024902 186.10289307 -45.94956055 186.10812988 -46.84521484 186.11352539 C-49 186 -49 186 -51 185 C-52.70363822 184.77377919 -54.41328701 184.59111527 -56.125 184.4375 C-57.03507812 184.35371094 -57.94515625 184.26992187 -58.8828125 184.18359375 C-59.58148438 184.12300781 -60.28015625 184.06242188 -61 184 C-61 183.01 -61 182.02 -61 181 C-63.64 181 -66.28 181 -69 181 C-69 180.34 -69 179.68 -69 179 C-70.65 178.67 -72.3 178.34 -74 178 C-74 177.34 -74 176.68 -74 176 C-74.99 176 -75.98 176 -77 176 C-77 175.01 -77 174.02 -77 173 C-78.32 173 -79.64 173 -81 173 C-81 172.01 -81 171.02 -81 170 C-81.99 170 -82.98 170 -84 170 C-84 169.34 -84 168.68 -84 168 C-84.99 168 -85.98 168 -87 168 C-87 167.34 -87 166.68 -87 166 C-87.66 166 -88.32 166 -89 166 C-89 165.01 -89 164.02 -89 163 C-89.99 163 -90.98 163 -92 163 C-92 162.01 -92 161.02 -92 160 C-92.66 160 -93.32 160 -94 160 C-94 159.34 -94 158.68 -94 158 C-94.99 158 -95.98 158 -97 158 C-97 157.34 -97 156.68 -97 156 C-97.66 156 -98.32 156 -99 156 C-99 155.01 -99 154.02 -99 153 C-99.99 153 -100.98 153 -102 153 C-102 151.35 -102 149.7 -102 148 C-102.99 148 -103.98 148 -105 148 C-105 147.01 -105 146.02 -105 145 C-105.66 145 -106.32 145 -107 145 C-110 138.375 -110 138.375 -110 135 C-110.66 135 -111.32 135 -112 135 C-112 132.69 -112 130.38 -112 128 C-112.99 128 -113.98 128 -115 128 C-115 123.38 -115 118.76 -115 114 C-115.66 114 -116.32 114 -117 114 C-117 107.4 -117 100.8 -117 94 C-116.34 94 -115.68 94 -115 94 C-115 89.05 -115 84.1 -115 79 C-114.01 79 -113.02 79 -112 79 C-112 76.69 -112 74.38 -112 72 C-111.01 72 -110.02 72 -109 72 C-109 70.02 -109 68.04 -109 66 C-108.34 66 -107.68 66 -107 66 C-107 63.36 -107 60.72 -107 58 C-106.34 58 -105.68 58 -105 58 C-105 57.34 -105 56.68 -105 56 C-104.01 56 -103.02 56 -102 56 C-102 54.35 -102 52.7 -102 51 C-101.01 51 -100.02 51 -99 51 C-99 49.35 -99 47.7 -99 46 C-98.01 46 -97.02 46 -96 46 C-96 45.34 -96 44.68 -96 44 C-95.34 44 -94.68 44 -94 44 C-94 42.02 -94 40.04 -94 38 C-93.34 38 -92.68 38 -92 38 C-92 37.34 -92 36.68 -92 36 C-91.01 36 -90.02 36 -89 36 C-89 35.01 -89 34.02 -89 33 C-88.34 33 -87.68 33 -87 33 C-87 32.01 -87 31.02 -87 30 C-86.01 30 -85.02 30 -84 30 C-84 29.34 -84 28.68 -84 28 C-83.01 28 -82.02 28 -81 28 C-81 27.34 -81 26.68 -81 26 C-80.34 26 -79.68 26 -79 26 C-79 25.01 -79 24.02 -79 23 C-78.34 23 -77.68 23 -77 23 C-77 22.01 -77 21.02 -77 20 C-75.02 20 -73.04 20 -71 20 C-71 19.34 -71 18.68 -71 18 C-68.69 17.34 -66.38 16.68 -64 16 C-64 15.01 -64 14.02 -64 13 C-62.02 13 -60.04 13 -58 13 C-58 12.34 -58 11.68 -58 11 C-56.35 10.67 -54.7 10.34 -53 10 C-53 9.34 -53 8.68 -53 8 C-50.69 8 -48.38 8 -46 8 C-46 7.01 -46 6.02 -46 5 C-43.36 5 -40.72 5 -38 5 C-38 4.01 -38 3.02 -38 2 C-25.4698302 -0.79001793 -12.75700521 -0.1938528 0 0 Z " fill="#078AD2" transform="translate(274,59)"/>
<path d="M0 0 C1.23093636 0.0001133 1.23093636 0.0001133 2.48674011 0.00022888 C3.36808121 0.00539017 4.2494223 0.01055145 5.1574707 0.01586914 C6.5161602 0.01799156 6.5161602 0.01799156 7.90229797 0.02015686 C10.79598286 0.02575538 13.68959044 0.03830758 16.58325195 0.05102539 C18.54483938 0.05604058 20.50642801 0.06060346 22.46801758 0.06469727 C27.27729217 0.07572432 32.08650895 0.09298792 36.89575195 0.11352539 C36.89575195 0.77352539 36.89575195 1.43352539 36.89575195 2.11352539 C37.55575195 2.11352539 38.21575195 2.11352539 38.89575195 2.11352539 C38.89575195 7.39352539 38.89575195 12.67352539 38.89575195 18.11352539 C38.23575195 18.11352539 37.57575195 18.11352539 36.89575195 18.11352539 C36.92668945 20.03165039 36.92668945 20.03165039 36.95825195 21.98852539 C37.02075195 25.86352539 37.02075195 25.86352539 35.89575195 28.11352539 C35.66953114 29.81716361 35.48686722 31.5268124 35.33325195 33.23852539 C35.24946289 34.14860352 35.16567383 35.05868164 35.0793457 35.99633789 C35.01875977 36.69500977 34.95817383 37.39368164 34.89575195 38.11352539 C33.90575195 38.11352539 32.91575195 38.11352539 31.89575195 38.11352539 C31.89575195 40.75352539 31.89575195 43.39352539 31.89575195 46.11352539 C30.90575195 46.11352539 29.91575195 46.11352539 28.89575195 46.11352539 C28.89575195 48.09352539 28.89575195 50.07352539 28.89575195 52.11352539 C28.23575195 52.11352539 27.57575195 52.11352539 26.89575195 52.11352539 C26.89575195 53.43352539 26.89575195 54.75352539 26.89575195 56.11352539 C25.90575195 56.11352539 24.91575195 56.11352539 23.89575195 56.11352539 C23.89575195 58.09352539 23.89575195 60.07352539 23.89575195 62.11352539 C22.90575195 62.11352539 21.91575195 62.11352539 20.89575195 62.11352539 C20.89575195 63.43352539 20.89575195 64.75352539 20.89575195 66.11352539 C20.23575195 66.11352539 19.57575195 66.11352539 18.89575195 66.11352539 C18.89575195 68.09352539 18.89575195 70.07352539 18.89575195 72.11352539 C18.23575195 72.11352539 17.57575195 72.11352539 16.89575195 72.11352539 C16.89575195 72.77352539 16.89575195 73.43352539 16.89575195 74.11352539 C15.90575195 74.11352539 14.91575195 74.11352539 13.89575195 74.11352539 C13.89575195 75.10352539 13.89575195 76.09352539 13.89575195 77.11352539 C12.90575195 77.11352539 11.91575195 77.11352539 10.89575195 77.11352539 C10.89575195 78.10352539 10.89575195 79.09352539 10.89575195 80.11352539 C10.23575195 80.11352539 9.57575195 80.11352539 8.89575195 80.11352539 C8.89575195 80.77352539 8.89575195 81.43352539 8.89575195 82.11352539 C7.90575195 82.11352539 6.91575195 82.11352539 5.89575195 82.11352539 C5.89575195 82.77352539 5.89575195 83.43352539 5.89575195 84.11352539 C5.23575195 84.11352539 4.57575195 84.11352539 3.89575195 84.11352539 C3.89575195 86.09352539 3.89575195 88.07352539 3.89575195 90.11352539 C2.24575195 90.11352539 0.59575195 90.11352539 -1.10424805 90.11352539 C-1.10424805 90.77352539 -1.10424805 91.43352539 -1.10424805 92.11352539 C-2.09424805 92.11352539 -3.08424805 92.11352539 -4.10424805 92.11352539 C-4.10424805 92.77352539 -4.10424805 93.43352539 -4.10424805 94.11352539 C-5.09424805 94.11352539 -6.08424805 94.11352539 -7.10424805 94.11352539 C-7.10424805 95.10352539 -7.10424805 96.09352539 -7.10424805 97.11352539 C-8.42424805 97.11352539 -9.74424805 97.11352539 -11.10424805 97.11352539 C-11.10424805 98.10352539 -11.10424805 99.09352539 -11.10424805 100.11352539 C-12.09424805 100.11352539 -13.08424805 100.11352539 -14.10424805 100.11352539 C-14.10424805 100.77352539 -14.10424805 101.43352539 -14.10424805 102.11352539 C-15.09424805 102.11352539 -16.08424805 102.11352539 -17.10424805 102.11352539 C-17.10424805 103.10352539 -17.10424805 104.09352539 -17.10424805 105.11352539 C-18.75424805 105.11352539 -20.40424805 105.11352539 -22.10424805 105.11352539 C-22.10424805 106.10352539 -22.10424805 107.09352539 -22.10424805 108.11352539 C-23.75424805 108.11352539 -25.40424805 108.11352539 -27.10424805 108.11352539 C-27.10424805 108.77352539 -27.10424805 109.43352539 -27.10424805 110.11352539 C-29.74424805 110.11352539 -32.38424805 110.11352539 -35.10424805 110.11352539 C-35.10424805 110.77352539 -35.10424805 111.43352539 -35.10424805 112.11352539 C-38.40424805 112.11352539 -41.70424805 112.11352539 -45.10424805 112.11352539 C-45.10424805 113.10352539 -45.10424805 114.09352539 -45.10424805 115.11352539 C-59.29424805 115.11352539 -73.48424805 115.11352539 -88.10424805 115.11352539 C-88.10424805 114.45352539 -88.10424805 113.79352539 -88.10424805 113.11352539 C-93.54924805 112.61852539 -93.54924805 112.61852539 -99.10424805 112.11352539 C-99.10424805 111.45352539 -99.10424805 110.79352539 -99.10424805 110.11352539 C-100.42424805 110.11352539 -101.74424805 110.11352539 -103.10424805 110.11352539 C-103.10424805 109.45352539 -103.10424805 108.79352539 -103.10424805 108.11352539 C-105.08424805 108.11352539 -107.06424805 108.11352539 -109.10424805 108.11352539 C-109.10424805 107.12352539 -109.10424805 106.13352539 -109.10424805 105.11352539 C-110.09424805 105.11352539 -111.08424805 105.11352539 -112.10424805 105.11352539 C-112.10424805 104.45352539 -112.10424805 103.79352539 -112.10424805 103.11352539 C-113.42424805 102.78352539 -114.74424805 102.45352539 -116.10424805 102.11352539 C-116.10424805 101.45352539 -116.10424805 100.79352539 -116.10424805 100.11352539 C-117.75424805 99.78352539 -119.40424805 99.45352539 -121.10424805 99.11352539 C-121.10424805 98.45352539 -121.10424805 97.79352539 -121.10424805 97.11352539 C-122.09424805 97.11352539 -123.08424805 97.11352539 -124.10424805 97.11352539 C-124.10424805 96.12352539 -124.10424805 95.13352539 -124.10424805 94.11352539 C-125.75424805 94.11352539 -127.40424805 94.11352539 -129.10424805 94.11352539 C-129.10424805 93.45352539 -129.10424805 92.79352539 -129.10424805 92.11352539 C-129.76424805 92.11352539 -130.42424805 92.11352539 -131.10424805 92.11352539 C-131.10424805 91.45352539 -131.10424805 90.79352539 -131.10424805 90.11352539 C-132.09424805 90.11352539 -133.08424805 90.11352539 -134.10424805 90.11352539 C-134.10424805 89.12352539 -134.10424805 88.13352539 -134.10424805 87.11352539 C-135.09424805 87.11352539 -136.08424805 87.11352539 -137.10424805 87.11352539 C-137.10424805 86.12352539 -137.10424805 85.13352539 -137.10424805 84.11352539 C-137.76424805 84.11352539 -138.42424805 84.11352539 -139.10424805 84.11352539 C-139.43424805 83.12352539 -139.76424805 82.13352539 -140.10424805 81.11352539 C-140.76424805 80.78352539 -141.42424805 80.45352539 -142.10424805 80.11352539 C-142.10424805 79.12352539 -142.10424805 78.13352539 -142.10424805 77.11352539 C-142.76424805 77.11352539 -143.42424805 77.11352539 -144.10424805 77.11352539 C-144.10424805 76.12352539 -144.10424805 75.13352539 -144.10424805 74.11352539 C-145.09424805 74.11352539 -146.08424805 74.11352539 -147.10424805 74.11352539 C-147.10424805 73.45352539 -147.10424805 72.79352539 -147.10424805 72.11352539 C-147.76424805 72.11352539 -148.42424805 72.11352539 -149.10424805 72.11352539 C-149.10424805 70.13352539 -149.10424805 68.15352539 -149.10424805 66.11352539 C-150.09424805 66.11352539 -151.08424805 66.11352539 -152.10424805 66.11352539 C-152.10424805 64.79352539 -152.10424805 63.47352539 -152.10424805 62.11352539 C-153.09424805 62.11352539 -154.08424805 62.11352539 -155.10424805 62.11352539 C-155.10424805 61.12352539 -155.10424805 60.13352539 -155.10424805 59.11352539 C-155.76424805 59.11352539 -156.42424805 59.11352539 -157.10424805 59.11352539 C-157.10424805 56.80352539 -157.10424805 54.49352539 -157.10424805 52.11352539 C-156.44424805 52.11352539 -155.78424805 52.11352539 -155.10424805 52.11352539 C-155.10424805 52.77352539 -155.10424805 53.43352539 -155.10424805 54.11352539 C-154.11424805 54.11352539 -153.12424805 54.11352539 -152.10424805 54.11352539 C-152.10424805 54.77352539 -152.10424805 55.43352539 -152.10424805 56.11352539 C-151.11424805 56.11352539 -150.12424805 56.11352539 -149.10424805 56.11352539 C-149.10424805 57.10352539 -149.10424805 58.09352539 -149.10424805 59.11352539 C-148.44424805 59.11352539 -147.78424805 59.11352539 -147.10424805 59.11352539 C-147.10424805 60.10352539 -147.10424805 61.09352539 -147.10424805 62.11352539 C-146.11424805 62.11352539 -145.12424805 62.11352539 -144.10424805 62.11352539 C-144.10424805 62.77352539 -144.10424805 63.43352539 -144.10424805 64.11352539 C-143.44424805 64.11352539 -142.78424805 64.11352539 -142.10424805 64.11352539 C-142.10424805 64.77352539 -142.10424805 65.43352539 -142.10424805 66.11352539 C-141.11424805 66.11352539 -140.12424805 66.11352539 -139.10424805 66.11352539 C-139.10424805 67.10352539 -139.10424805 68.09352539 -139.10424805 69.11352539 C-138.44424805 69.11352539 -137.78424805 69.11352539 -137.10424805 69.11352539 C-137.10424805 70.10352539 -137.10424805 71.09352539 -137.10424805 72.11352539 C-136.11424805 72.11352539 -135.12424805 72.11352539 -134.10424805 72.11352539 C-134.10424805 72.77352539 -134.10424805 73.43352539 -134.10424805 74.11352539 C-132.78424805 74.44352539 -131.46424805 74.77352539 -130.10424805 75.11352539 C-130.10424805 75.77352539 -130.10424805 76.43352539 -130.10424805 77.11352539 C-129.11424805 77.11352539 -128.12424805 77.11352539 -127.10424805 77.11352539 C-127.10424805 78.10352539 -127.10424805 79.09352539 -127.10424805 80.11352539 C-125.12424805 80.11352539 -123.14424805 80.11352539 -121.10424805 80.11352539 C-121.10424805 80.77352539 -121.10424805 81.43352539 -121.10424805 82.11352539 C-118.79424805 82.11352539 -116.48424805 82.11352539 -114.10424805 82.11352539 C-114.10424805 82.77352539 -114.10424805 83.43352539 -114.10424805 84.11352539 C-112.45424805 84.44352539 -110.80424805 84.77352539 -109.10424805 85.11352539 C-109.10424805 85.77352539 -109.10424805 86.43352539 -109.10424805 87.11352539 C-98.87424805 87.11352539 -88.64424805 87.11352539 -78.10424805 87.11352539 C-78.10424805 86.45352539 -78.10424805 85.79352539 -78.10424805 85.11352539 C-73.81424805 84.78352539 -69.52424805 84.45352539 -65.10424805 84.11352539 C-65.10424805 83.45352539 -65.10424805 82.79352539 -65.10424805 82.11352539 C-61.14424805 82.11352539 -57.18424805 82.11352539 -53.10424805 82.11352539 C-53.10424805 81.45352539 -53.10424805 80.79352539 -53.10424805 80.11352539 C-51.12424805 80.11352539 -49.14424805 80.11352539 -47.10424805 80.11352539 C-47.10424805 79.12352539 -47.10424805 78.13352539 -47.10424805 77.11352539 C-44.79424805 77.11352539 -42.48424805 77.11352539 -40.10424805 77.11352539 C-40.10424805 76.45352539 -40.10424805 75.79352539 -40.10424805 75.11352539 C-39.11424805 75.11352539 -38.12424805 75.11352539 -37.10424805 75.11352539 C-37.10424805 74.12352539 -37.10424805 73.13352539 -37.10424805 72.11352539 C-35.45424805 72.11352539 -33.80424805 72.11352539 -32.10424805 72.11352539 C-32.10424805 71.12352539 -32.10424805 70.13352539 -32.10424805 69.11352539 C-31.44424805 69.11352539 -30.78424805 69.11352539 -30.10424805 69.11352539 C-30.10424805 68.12352539 -30.10424805 67.13352539 -30.10424805 66.11352539 C-29.11424805 66.11352539 -28.12424805 66.11352539 -27.10424805 66.11352539 C-27.10424805 65.45352539 -27.10424805 64.79352539 -27.10424805 64.11352539 C-26.11424805 64.11352539 -25.12424805 64.11352539 -24.10424805 64.11352539 C-24.10424805 63.45352539 -24.10424805 62.79352539 -24.10424805 62.11352539 C-23.44424805 62.11352539 -22.78424805 62.11352539 -22.10424805 62.11352539 C-22.10424805 61.12352539 -22.10424805 60.13352539 -22.10424805 59.11352539 C-21.11424805 59.11352539 -20.12424805 59.11352539 -19.10424805 59.11352539 C-19.10424805 58.12352539 -19.10424805 57.13352539 -19.10424805 56.11352539 C-18.11424805 56.11352539 -17.12424805 56.11352539 -16.10424805 56.11352539 C-16.10424805 55.45352539 -16.10424805 54.79352539 -16.10424805 54.11352539 C-15.44424805 54.11352539 -14.78424805 54.11352539 -14.10424805 54.11352539 C-14.10424805 53.45352539 -14.10424805 52.79352539 -14.10424805 52.11352539 C-13.11424805 52.11352539 -12.12424805 52.11352539 -11.10424805 52.11352539 C-11.10424805 51.12352539 -11.10424805 50.13352539 -11.10424805 49.11352539 C-10.44424805 49.11352539 -9.78424805 49.11352539 -9.10424805 49.11352539 C-9.10424805 47.46352539 -9.10424805 45.81352539 -9.10424805 44.11352539 C-11.74424805 44.11352539 -14.38424805 44.11352539 -17.10424805 44.11352539 C-17.10424805 44.77352539 -17.10424805 45.43352539 -17.10424805 46.11352539 C-25.35424805 46.11352539 -33.60424805 46.11352539 -42.10424805 46.11352539 C-42.10424805 45.45352539 -42.10424805 44.79352539 -42.10424805 44.11352539 C-44.74424805 43.78352539 -47.38424805 43.45352539 -50.10424805 43.11352539 C-50.10424805 42.45352539 -50.10424805 41.79352539 -50.10424805 41.11352539 C-51.75424805 41.11352539 -53.40424805 41.11352539 -55.10424805 41.11352539 C-55.10424805 40.45352539 -55.10424805 39.79352539 -55.10424805 39.11352539 C-56.75424805 38.78352539 -58.40424805 38.45352539 -60.10424805 38.11352539 C-60.10424805 37.45352539 -60.10424805 36.79352539 -60.10424805 36.11352539 C-61.75424805 36.11352539 -63.40424805 36.11352539 -65.10424805 36.11352539 C-65.10424805 35.45352539 -65.10424805 34.79352539 -65.10424805 34.11352539 C-66.09424805 34.11352539 -67.08424805 34.11352539 -68.10424805 34.11352539 C-68.10424805 33.12352539 -68.10424805 32.13352539 -68.10424805 31.11352539 C-69.75424805 31.11352539 -71.40424805 31.11352539 -73.10424805 31.11352539 C-73.10424805 30.12352539 -73.10424805 29.13352539 -73.10424805 28.11352539 C-73.76424805 28.11352539 -74.42424805 28.11352539 -75.10424805 28.11352539 C-75.10424805 27.45352539 -75.10424805 26.79352539 -75.10424805 26.11352539 C-76.09424805 26.11352539 -77.08424805 26.11352539 -78.10424805 26.11352539 C-78.10424805 25.45352539 -78.10424805 24.79352539 -78.10424805 24.11352539 C-76.45424805 23.78352539 -74.80424805 23.45352539 -73.10424805 23.11352539 C-73.10424805 22.45352539 -73.10424805 21.79352539 -73.10424805 21.11352539 C-68.81424805 21.11352539 -64.52424805 21.11352539 -60.10424805 21.11352539 C-60.10424805 20.45352539 -60.10424805 19.79352539 -60.10424805 19.11352539 C-57.79424805 18.78352539 -55.48424805 18.45352539 -53.10424805 18.11352539 C-53.10424805 17.45352539 -53.10424805 16.79352539 -53.10424805 16.11352539 C-49.47424805 16.11352539 -45.84424805 16.11352539 -42.10424805 16.11352539 C-42.10424805 15.12352539 -42.10424805 14.13352539 -42.10424805 13.11352539 C-40.45424805 13.11352539 -38.80424805 13.11352539 -37.10424805 13.11352539 C-37.10424805 12.12352539 -37.10424805 11.13352539 -37.10424805 10.11352539 C-34.46424805 10.11352539 -31.82424805 10.11352539 -29.10424805 10.11352539 C-29.10424805 9.45352539 -29.10424805 8.79352539 -29.10424805 8.11352539 C-27.78424805 8.11352539 -26.46424805 8.11352539 -25.10424805 8.11352539 C-25.10424805 7.45352539 -25.10424805 6.79352539 -25.10424805 6.11352539 C-23.12424805 6.11352539 -21.14424805 6.11352539 -19.10424805 6.11352539 C-19.10424805 5.12352539 -19.10424805 4.13352539 -19.10424805 3.11352539 C-15.14424805 3.11352539 -11.18424805 3.11352539 -7.10424805 3.11352539 C-7.10424805 2.45352539 -7.10424805 1.79352539 -7.10424805 1.11352539 C-4.37318294 0.20317036 -2.80531566 -0.00863174 0 0 Z " fill="#FE6804" transform="translate(324.104248046875,162.886474609375)"/>
<path d="M0 0 C0.99 0 1.98 0 3 0 C2.40138258 2.35171131 1.73075648 4.6859378 1 7 C0.34 7.33 -0.32 7.66 -1 8 C-1.39474075 10.12081865 -1.39474075 10.12081865 -1.5 12.625 C-1.8472338 17.01908595 -2.63612256 20.81744251 -4 25 C-4.66 24.34 -5.32 23.68 -6 23 C-6.33 37.19 -6.66 51.38 -7 66 C-6.34 66 -5.68 66 -5 66 C-5.061875 65.34 -5.12375 64.68 -5.1875 64 C-4.93182247 59.90915946 -3.54304956 56.79333016 -2 53 C-1.34 53 -0.68 53 0 53 C0 54.65 0 56.3 0 58 C-0.66 58 -1.32 58 -2 58 C-2 59.65 -2 61.3 -2 63 C-2.66 63 -3.32 63 -4 63 C-4 76.53 -4 90.06 -4 104 C-3.34 104 -2.68 104 -2 104 C-2 106.64 -2 109.28 -2 112 C-1.34 112 -0.68 112 0 112 C0 114.31 0 116.62 0 119 C0.99 119 1.98 119 3 119 C3 119.99 3 120.98 3 122 C3.99 122 4.98 122 6 122 C6 123.65 6 125.3 6 127 C6.66 127 7.32 127 8 127 C8 127.99 8 128.98 8 130 C8.99 130 9.98 130 11 130 C11.495 133.465 11.495 133.465 12 137 C13.32 137 14.64 137 16 137 C16 137.99 16 138.98 16 140 C16.66 140 17.32 140 18 140 C18 140.66 18 141.32 18 142 C18.99 142 19.98 142 21 142 C21 142.99 21 143.98 21 145 C21.99 145 22.98 145 24 145 C24 145.66 24 146.32 24 147 C25.32 147.33 26.64 147.66 28 148 C28 148.66 28 149.32 28 150 C30.64 150 33.28 150 36 150 C36 150.66 36 151.32 36 152 C37.98 152.33 39.96 152.66 42 153 C42 153.66 42 154.32 42 155 C44.31 155 46.62 155 49 155 C49 156.65 49 158.3 49 160 C45.54168414 160.02894547 42.08339928 160.04678 38.625 160.0625 C37.64015625 160.07087891 36.6553125 160.07925781 35.640625 160.08789062 C34.69960937 160.09111328 33.75859375 160.09433594 32.7890625 160.09765625 C31.91975098 160.10289307 31.05043945 160.10812988 30.15478516 160.11352539 C28 160 28 160 26 159 C24.29636178 158.77377919 22.58671299 158.59111527 20.875 158.4375 C19.96492188 158.35371094 19.05484375 158.26992187 18.1171875 158.18359375 C17.41851562 158.12300781 16.71984375 158.06242188 16 158 C16 157.01 16 156.02 16 155 C13.36 155 10.72 155 8 155 C8 154.34 8 153.68 8 153 C6.35 152.67 4.7 152.34 3 152 C3 151.34 3 150.68 3 150 C2.01 150 1.02 150 0 150 C0 149.01 0 148.02 0 147 C-1.32 147 -2.64 147 -4 147 C-4 146.01 -4 145.02 -4 144 C-4.99 144 -5.98 144 -7 144 C-7 143.34 -7 142.68 -7 142 C-7.99 142 -8.98 142 -10 142 C-10 141.34 -10 140.68 -10 140 C-10.66 140 -11.32 140 -12 140 C-12 139.01 -12 138.02 -12 137 C-12.99 137 -13.98 137 -15 137 C-15 136.01 -15 135.02 -15 134 C-15.66 134 -16.32 134 -17 134 C-17 133.34 -17 132.68 -17 132 C-17.99 132 -18.98 132 -20 132 C-20 131.34 -20 130.68 -20 130 C-20.66 130 -21.32 130 -22 130 C-22 129.01 -22 128.02 -22 127 C-22.99 127 -23.98 127 -25 127 C-25 125.35 -25 123.7 -25 122 C-25.99 122 -26.98 122 -28 122 C-28 121.01 -28 120.02 -28 119 C-28.66 119 -29.32 119 -30 119 C-33 112.375 -33 112.375 -33 109 C-33.66 109 -34.32 109 -35 109 C-35 106.69 -35 104.38 -35 102 C-35.99 102 -36.98 102 -38 102 C-38 97.38 -38 92.76 -38 88 C-38.66 88 -39.32 88 -40 88 C-40 81.4 -40 74.8 -40 68 C-39.34 68 -38.68 68 -38 68 C-38 63.05 -38 58.1 -38 53 C-37.01 53 -36.02 53 -35 53 C-35 50.69 -35 48.38 -35 46 C-34.01 46 -33.02 46 -32 46 C-32 44.02 -32 42.04 -32 40 C-31.34 40 -30.68 40 -30 40 C-30 37.36 -30 34.72 -30 32 C-29.34 32 -28.68 32 -28 32 C-28 31.34 -28 30.68 -28 30 C-27.01 30 -26.02 30 -25 30 C-25 28.35 -25 26.7 -25 25 C-24.01 25 -23.02 25 -22 25 C-22 23.35 -22 21.7 -22 20 C-21.01 20 -20.02 20 -19 20 C-19 19.34 -19 18.68 -19 18 C-18.34 18 -17.68 18 -17 18 C-17 16.02 -17 14.04 -17 12 C-16.34 12 -15.68 12 -15 12 C-15 11.34 -15 10.68 -15 10 C-13.02 10 -11.04 10 -9 10 C-9 9.01 -9 8.02 -9 7 C-8.195625 6.87625 -7.39125 6.7525 -6.5625 6.625 C-5.716875 6.41875 -4.87125 6.2125 -4 6 C-3.67 5.34 -3.34 4.68 -3 4 C-2.01 4 -1.02 4 0 4 C0 2.68 0 1.36 0 0 Z " fill="#1876C5" transform="translate(197,85)"/>
<path d="M0 0 C0.80759766 -0.01224609 1.61519531 -0.02449219 2.44726562 -0.03710938 C6.81602255 -0.04784342 10.21004059 0.14632915 14.1875 2.1875 C14.1875 3.1775 14.1875 4.1675 14.1875 5.1875 C15.1775 5.1875 16.1675 5.1875 17.1875 5.1875 C17.1875 6.1775 17.1875 7.1675 17.1875 8.1875 C18.8375 8.1875 20.4875 8.1875 22.1875 8.1875 C22.1875 9.8375 22.1875 11.4875 22.1875 13.1875 C22.8475 13.1875 23.5075 13.1875 24.1875 13.1875 C24.1875 14.8375 24.1875 16.4875 24.1875 18.1875 C25.1775 18.1875 26.1675 18.1875 27.1875 18.1875 C27.1875 24.1275 27.1875 30.0675 27.1875 36.1875 C26.5275 36.1875 25.8675 36.1875 25.1875 36.1875 C24.8575 38.4975 24.5275 40.8075 24.1875 43.1875 C23.5275 43.1875 22.8675 43.1875 22.1875 43.1875 C22.1875 44.1775 22.1875 45.1675 22.1875 46.1875 C21.5275 46.1875 20.8675 46.1875 20.1875 46.1875 C20.1875 47.1775 20.1875 48.1675 20.1875 49.1875 C19.1975 49.1875 18.2075 49.1875 17.1875 49.1875 C17.1875 49.8475 17.1875 50.5075 17.1875 51.1875 C16.1975 51.1875 15.2075 51.1875 14.1875 51.1875 C14.1875 52.1775 14.1875 53.1675 14.1875 54.1875 C11.5475 54.1875 8.9075 54.1875 6.1875 54.1875 C6.1875 54.8475 6.1875 55.5075 6.1875 56.1875 C2.8875 56.1875 -0.4125 56.1875 -3.8125 56.1875 C-3.8125 55.5275 -3.8125 54.8675 -3.8125 54.1875 C-6.1225 54.1875 -8.4325 54.1875 -10.8125 54.1875 C-10.8125 53.1975 -10.8125 52.2075 -10.8125 51.1875 C-12.4625 51.1875 -14.1125 51.1875 -15.8125 51.1875 C-15.8125 50.5275 -15.8125 49.8675 -15.8125 49.1875 C-16.8025 49.1875 -17.7925 49.1875 -18.8125 49.1875 C-18.8125 47.2075 -18.8125 45.2275 -18.8125 43.1875 C-19.8025 43.1875 -20.7925 43.1875 -21.8125 43.1875 C-21.8125 42.5275 -21.8125 41.8675 -21.8125 41.1875 C-22.4725 41.1875 -23.1325 41.1875 -23.8125 41.1875 C-26.37639107 33.33558359 -27.45666219 23.11998657 -24.8125 15.1875 C-23.8225 15.1875 -22.8325 15.1875 -21.8125 15.1875 C-21.4825 13.8675 -21.1525 12.5475 -20.8125 11.1875 C-20.1525 11.1875 -19.4925 11.1875 -18.8125 11.1875 C-18.8125 10.1975 -18.8125 9.2075 -18.8125 8.1875 C-17.8225 8.1875 -16.8325 8.1875 -15.8125 8.1875 C-15.8125 7.1975 -15.8125 6.2075 -15.8125 5.1875 C-15.1525 5.1875 -14.4925 5.1875 -13.8125 5.1875 C-13.8125 4.5275 -13.8125 3.8675 -13.8125 3.1875 C-12.8225 3.1875 -11.8325 3.1875 -10.8125 3.1875 C-10.8125 2.5275 -10.8125 1.8675 -10.8125 1.1875 C-7.45228043 -0.49260978 -3.69152188 0.00290442 0 0 Z " fill="#FE6A07" transform="translate(338.8125,101.8125)"/>
<path d="M0 0 C16.83 0 33.66 0 51 0 C51 4.29 51 8.58 51 13 C35.82 13 20.64 13 5 13 C5 14.65 5 16.3 5 18 C5.66 18 6.32 18 7 18 C7 18.66 7 19.32 7 20 C18.88 20 30.76 20 43 20 C43 20.99 43 21.98 43 23 C43.99 23 44.98 23 46 23 C46 23.99 46 24.98 46 26 C46.66 26 47.32 26 48 26 C48 27.32 48 28.64 48 30 C48.99 30 49.98 30 51 30 C51 34.29 51 38.58 51 43 C50.34 43 49.68 43 49 43 C49 43.99 49 44.98 49 46 C48.01 46 47.02 46 46 46 C46 46.66 46 47.32 46 48 C45.01 48 44.02 48 43 48 C43 48.99 43 49.98 43 51 C26.83 51 10.66 51 -6 51 C-6 47.7 -6 44.4 -6 41 C8.52 41 23.04 41 38 41 C38 38.36 38 35.72 38 33 C27.11 33 16.22 33 5 33 C5 32.34 5 31.68 5 31 C3.35 30.67 1.7 30.34 0 30 C0 29.34 0 28.68 0 28 C-0.99 28 -1.98 28 -3 28 C-3 26.35 -3 24.7 -3 23 C-3.99 23 -4.98 23 -6 23 C-6 18.05 -6 13.1 -6 8 C-5.01 8 -4.02 8 -3 8 C-3 7.01 -3 6.02 -3 5 C-2.01 5 -1.02 5 0 5 C0 3.35 0 1.7 0 0 Z " fill="#060606" transform="translate(323,311)"/>
<path d="M0 0 C1.01394333 0.0028299 2.02788666 0.00565979 3.07255554 0.00857544 C6.30239802 0.01974625 9.53196046 0.04484539 12.76171875 0.0703125 C14.95507411 0.0803463 17.14843383 0.08947145 19.34179688 0.09765625 C24.71104495 0.11967549 30.08008441 0.15418425 35.44921875 0.1953125 C35.44921875 4.4853125 35.44921875 8.7753125 35.44921875 13.1953125 C20.26921875 13.1953125 5.08921875 13.1953125 -10.55078125 13.1953125 C-10.55078125 21.4453125 -10.55078125 29.6953125 -10.55078125 38.1953125 C-9.56078125 38.1953125 -8.57078125 38.1953125 -7.55078125 38.1953125 C-7.55078125 39.1853125 -7.55078125 40.1753125 -7.55078125 41.1953125 C2.67921875 41.1953125 12.90921875 41.1953125 23.44921875 41.1953125 C23.77921875 38.5553125 24.10921875 35.9153125 24.44921875 33.1953125 C16.19921875 33.1953125 7.94921875 33.1953125 -0.55078125 33.1953125 C-0.55078125 28.9053125 -0.55078125 24.6153125 -0.55078125 20.1953125 C8.68921875 20.1953125 17.92921875 20.1953125 27.44921875 20.1953125 C27.44921875 21.1853125 27.44921875 22.1753125 27.44921875 23.1953125 C28.43921875 23.1953125 29.42921875 23.1953125 30.44921875 23.1953125 C30.44921875 24.1853125 30.44921875 25.1753125 30.44921875 26.1953125 C31.10921875 26.1953125 31.76921875 26.1953125 32.44921875 26.1953125 C32.44921875 26.8553125 32.44921875 27.5153125 32.44921875 28.1953125 C33.43921875 28.1953125 34.42921875 28.1953125 35.44921875 28.1953125 C35.44921875 33.1453125 35.44921875 38.0953125 35.44921875 43.1953125 C34.78921875 43.1953125 34.12921875 43.1953125 33.44921875 43.1953125 C33.44921875 44.1853125 33.44921875 45.1753125 33.44921875 46.1953125 C32.45921875 46.1953125 31.46921875 46.1953125 30.44921875 46.1953125 C30.44921875 46.8553125 30.44921875 47.5153125 30.44921875 48.1953125 C29.45921875 48.1953125 28.46921875 48.1953125 27.44921875 48.1953125 C27.44921875 49.1853125 27.44921875 50.1753125 27.44921875 51.1953125 C13.91921875 51.1953125 0.38921875 51.1953125 -13.55078125 51.1953125 C-13.55078125 50.5353125 -13.55078125 49.8753125 -13.55078125 49.1953125 C-15.20078125 48.8653125 -16.85078125 48.5353125 -18.55078125 48.1953125 C-18.55078125 46.5453125 -18.55078125 44.8953125 -18.55078125 43.1953125 C-19.21078125 43.1953125 -19.87078125 43.1953125 -20.55078125 43.1953125 C-20.55078125 31.6453125 -20.55078125 20.0953125 -20.55078125 8.1953125 C-19.89078125 8.1953125 -19.23078125 8.1953125 -18.55078125 8.1953125 C-18.55078125 7.2053125 -18.55078125 6.2153125 -18.55078125 5.1953125 C-17.56078125 5.1953125 -16.57078125 5.1953125 -15.55078125 5.1953125 C-15.55078125 4.2053125 -15.55078125 3.2153125 -15.55078125 2.1953125 C-10.55623403 -0.48514088 -5.50766346 -0.05799059 0 0 Z " fill="#040404" transform="translate(80.55078125,310.8046875)"/>
<path d="M0 0 C16.83 0 33.66 0 51 0 C51 3.63 51 7.26 51 11 C37.14 11 23.28 11 9 11 C9 11.66 9 12.32 9 13 C8.01 13 7.02 13 6 13 C6 14.65 6 16.3 6 18 C6.66 18 7.32 18 8 18 C8 18.66 8 19.32 8 20 C20.21 20 32.42 20 45 20 C45.495 22.97 45.495 22.97 46 26 C46.99 26 47.98 26 49 26 C49 27.32 49 28.64 49 30 C49.66 30 50.32 30 51 30 C51 33.63 51 37.26 51 41 C50.34 41 49.68 41 49 41 C49 42.65 49 44.3 49 46 C48.34 46 47.68 46 47 46 C47 46.66 47 47.32 47 48 C46.01 48 45.02 48 44 48 C44 48.99 44 49.98 44 51 C28.16 51 12.32 51 -4 51 C-4 47.7 -4 44.4 -4 41 C10.19 41 24.38 41 39 41 C39 38.36 39 35.72 39 33 C28.11 33 17.22 33 6 33 C6 32.34 6 31.68 6 31 C4.02 30.67 2.04 30.34 0 30 C0 29.34 0 28.68 0 28 C-0.66 28 -1.32 28 -2 28 C-2 27.34 -2 26.68 -2 26 C-2.66 26 -3.32 26 -4 26 C-4.33 24.02 -4.66 22.04 -5 20 C-5.66 20 -6.32 20 -7 20 C-7 16.7 -7 13.4 -7 10 C-6.01 10 -5.02 10 -4 10 C-4 8.35 -4 6.7 -4 5 C-3.34 5 -2.68 5 -2 5 C-2 4.01 -2 3.02 -2 2 C-1.34 2 -0.68 2 0 2 C0 1.34 0 0.68 0 0 Z " fill="#050505" transform="translate(419,311)"/>
<path d="M0 0 C12.54 0 25.08 0 38 0 C38 4.29 38 8.58 38 13 C27.11 13 16.22 13 5 13 C5 15.31 5 17.62 5 20 C15.89 20 26.78 20 38 20 C38 24.29 38 28.58 38 33 C27.11 33 16.22 33 5 33 C5.66 35.64 6.32 38.28 7 41 C17.23 41 27.46 41 38 41 C38 44.3 38 47.6 38 51 C25.46 51 12.92 51 0 51 C0 50.01 0 49.02 0 48 C-0.99 48 -1.98 48 -3 48 C-3 47.34 -3 46.68 -3 46 C-3.66 46 -4.32 46 -5 46 C-5 45.01 -5 44.02 -5 43 C-5.99 43 -6.98 43 -8 43 C-8 31.45 -8 19.9 -8 8 C-7.01 8 -6.02 8 -5 8 C-5 7.01 -5 6.02 -5 5 C-4.34 5 -3.68 5 -3 5 C-3 4.01 -3 3.02 -3 2 C-2.01 2 -1.02 2 0 2 C0 1.34 0 0.68 0 0 Z " fill="#040404" transform="translate(264,311)"/>
<path d="M0 0 C12.87 0 25.74 0 39 0 C39 4.29 39 8.58 39 13 C27.78 13 16.56 13 5 13 C5 15.31 5 17.62 5 20 C5.9286084 19.99476318 6.8572168 19.98952637 7.81396484 19.98413086 C11.25423805 19.96710407 14.69446659 19.95455727 18.13476562 19.94506836 C19.62468166 19.94003486 21.11459274 19.93320758 22.60449219 19.92456055 C24.74415304 19.91245195 26.88374868 19.90676193 29.0234375 19.90234375 C30.31169434 19.89710693 31.59995117 19.89187012 32.92724609 19.88647461 C36 20 36 20 38 21 C38 23.97 38 26.94 38 30 C27.11 30 16.22 30 5 30 C5 33.63 5 37.26 5 41 C16.22 41 27.44 41 39 41 C39 44.3 39 47.6 39 51 C26.13 51 13.26 51 0 51 C0 50.01 0 49.02 0 48 C-0.66 48 -1.32 48 -2 48 C-2 46.35 -2 44.7 -2 43 C-2.99 43 -3.98 43 -5 43 C-5 31.45 -5 19.9 -5 8 C-4.01 8 -3.02 8 -2 8 C-2 6.02 -2 4.04 -2 2 C-1.34 2 -0.68 2 0 2 C0 1.34 0 0.68 0 0 Z " fill="#050505" transform="translate(136,311)"/>
<path d="M0 0 C0.79198288 0.0028299 1.58396576 0.00565979 2.39994812 0.00857544 C4.91652874 0.01972387 7.43274664 0.04481828 9.94921875 0.0703125 C11.66080213 0.08034921 13.37239112 0.08947386 15.08398438 0.09765625 C19.26836781 0.11964569 23.45248189 0.15413842 27.63671875 0.1953125 C27.63671875 0.8553125 27.63671875 1.5153125 27.63671875 2.1953125 C28.62671875 2.1953125 29.61671875 2.1953125 30.63671875 2.1953125 C30.63671875 3.1853125 30.63671875 4.1753125 30.63671875 5.1953125 C31.29671875 5.1953125 31.95671875 5.1953125 32.63671875 5.1953125 C32.63671875 6.8453125 32.63671875 8.4953125 32.63671875 10.1953125 C33.29671875 10.1953125 33.95671875 10.1953125 34.63671875 10.1953125 C34.63671875 24.7153125 34.63671875 39.2353125 34.63671875 54.1953125 C30.34671875 54.1953125 26.05671875 54.1953125 21.63671875 54.1953125 C21.63671875 40.6653125 21.63671875 27.1353125 21.63671875 13.1953125 C11.73671875 13.1953125 1.83671875 13.1953125 -8.36328125 13.1953125 C-8.36328125 25.7353125 -8.36328125 38.2753125 -8.36328125 51.1953125 C-11.66328125 51.1953125 -14.96328125 51.1953125 -18.36328125 51.1953125 C-18.36328125 37.0053125 -18.36328125 22.8153125 -18.36328125 8.1953125 C-17.37328125 8.1953125 -16.38328125 8.1953125 -15.36328125 8.1953125 C-15.36328125 7.2053125 -15.36328125 6.2153125 -15.36328125 5.1953125 C-14.70328125 5.1953125 -14.04328125 5.1953125 -13.36328125 5.1953125 C-13.36328125 4.2053125 -13.36328125 3.2153125 -13.36328125 2.1953125 C-8.94052578 -0.01415393 -4.83645196 -0.06554801 0 0 Z " fill="#060606" transform="translate(208.36328125,310.8046875)"/>
<path d="M0 0 C0.33 0.99 0.66 1.98 1 3 C1.66 3 2.32 3 3 3 C3 3.99 3 4.98 3 6 C3.99 6 4.98 6 6 6 C6 7.65 6 9.3 6 11 C6.99 11 7.98 11 9 11 C9 11.99 9 12.98 9 14 C9.66 14 10.32 14 11 14 C11 14.66 11 15.32 11 16 C11.99 16 12.98 16 14 16 C14 16.66 14 17.32 14 18 C14.66 18 15.32 18 16 18 C16 18.99 16 19.98 16 21 C16.99 21 17.98 21 19 21 C19 21.99 19 22.98 19 24 C19.66 24 20.32 24 21 24 C21 24.66 21 25.32 21 26 C21.99 26 22.98 26 24 26 C24 26.66 24 27.32 24 28 C24.99 28 25.98 28 27 28 C27 28.99 27 29.98 27 31 C28.32 31 29.64 31 31 31 C31 31.99 31 32.98 31 34 C31.99 34 32.98 34 34 34 C34 34.66 34 35.32 34 36 C35.65 36.33 37.3 36.66 39 37 C39 37.66 39 38.32 39 39 C41.64 39 44.28 39 47 39 C47 39.99 47 40.98 47 42 C47.69867188 41.98839844 48.39734375 41.97679687 49.1171875 41.96484375 C50.02726562 41.95582031 50.93734375 41.94679687 51.875 41.9375 C52.77992188 41.92589844 53.68484375 41.91429687 54.6171875 41.90234375 C57 42 57 42 59 43 C60.59262066 43.15175549 62.19064856 43.24900325 63.7890625 43.31640625 C64.73007813 43.35830078 65.67109375 43.40019531 66.640625 43.44335938 C68.11789063 43.50233398 68.11789063 43.50233398 69.625 43.5625 C71.11386719 43.62727539 71.11386719 43.62727539 72.6328125 43.69335938 C75.08839838 43.79961069 77.54408703 43.90164964 80 44 C80 42.35 80 40.7 80 39 C82.64 39 85.28 39 88 39 C88 39.99 88 40.98 88 42 C87.34 42 86.68 42 86 42 C86 42.66 86 43.32 86 44 C87.32 44 88.64 44 90 44 C90 44.66 90 45.32 90 46 C86.78548731 47.60725635 83.56387464 47.05748185 80 47 C80 47.66 80 48.32 80 49 C69.77 49 59.54 49 49 49 C49 48.34 49 47.68 49 47 C47.35 46.67 45.7 46.34 44 46 C44 45.34 44 44.68 44 44 C41.69 44 39.38 44 37 44 C37 43.34 37 42.68 37 42 C35.02 42 33.04 42 31 42 C31 41.01 31 40.02 31 39 C30.01 39 29.02 39 28 39 C27.67 38.34 27.34 37.68 27 37 C26.01 36.67 25.02 36.34 24 36 C24 35.34 24 34.68 24 34 C23.01 34 22.02 34 21 34 C21 33.01 21 32.02 21 31 C20.34 31 19.68 31 19 31 C19 30.01 19 29.02 19 28 C18.01 28 17.02 28 16 28 C16 27.34 16 26.68 16 26 C15.34 26 14.68 26 14 26 C14 25.34 14 24.68 14 24 C13.01 24 12.02 24 11 24 C11 23.01 11 22.02 11 21 C10.34 21 9.68 21 9 21 C9 20.01 9 19.02 9 18 C8.01 18 7.02 18 6 18 C6 17.34 6 16.68 6 16 C5.01 16 4.02 16 3 16 C3 15.34 3 14.68 3 14 C2.34 14 1.68 14 1 14 C0.67 15.32 0.34 16.64 0 18 C-1.4606285 15.35261084 -2 14.10551666 -2 11 C-2.66 11 -3.32 11 -4 11 C-4.12375 10.360625 -4.2475 9.72125 -4.375 9.0625 C-4.58125 8.381875 -4.7875 7.70125 -5 7 C-5.66 6.67 -6.32 6.34 -7 6 C-7 5.01 -7 4.02 -7 3 C-5.02 3 -3.04 3 -1 3 C-0.67 2.01 -0.34 1.02 0 0 Z " fill="#E5F1F7" transform="translate(166,201)"/>
<path d="M0 0 C3.96 0 7.92 0 12 0 C12 17.82 12 35.64 12 54 C8.04 54 4.08 54 0 54 C0 36.18 0 18.36 0 0 Z " fill="#070707" transform="translate(387,311)"/>
<path d="M0 0 C0.99 0 1.98 0 3 0 C3 4.29 3 8.58 3 13 C-7.89 13 -18.78 13 -30 13 C-30 14.65 -30 16.3 -30 18 C-18.45 18 -6.9 18 5 18 C5 23.28 5 28.56 5 34 C-7.54 34 -20.08 34 -33 34 C-33 33.01 -33 32.02 -33 31 C-21.12 31 -9.24 31 3 31 C3 27.7 3 24.4 3 21 C-8.22 21 -19.44 21 -31 21 C-31 17.37 -31 13.74 -31 10 C-20.11 10 -9.22 10 2 10 C2 7.03 2 4.06 2 1 C1.34 0.67 0.68 0.34 0 0 Z " fill="#A5A5A5" transform="translate(172,331)"/>
<path d="M0 0 C15.18 0 30.36 0 46 0 C46 0.99 46 1.98 46 3 C31.81 3 17.62 3 3 3 C3 6.3 3 9.6 3 13 C18.18 13 33.36 13 49 13 C49 13.99 49 14.98 49 16 C32.83 16 16.66 16 0 16 C0 10.72 0 5.44 0 0 Z " fill="#919191" transform="translate(412,349)"/>
<path d="M0 0 C9.24 0 18.48 0 28 0 C28 1.65 28 3.3 28 5 C28.66 5 29.32 5 30 5 C30 16.88 30 28.76 30 41 C33.3 41 36.6 41 40 41 C40 41.99 40 42.98 40 44 C35.71 44 31.42 44 27 44 C27 30.47 27 16.94 27 3 C18.09 3 9.18 3 0 3 C0 2.01 0 1.02 0 0 Z " fill="#929292" transform="translate(203,321)"/>
<path d="M0 0 C15.18 0 30.36 0 46 0 C46 4.29 46 8.58 46 13 C31.81 13 17.62 13 3 13 C3 12.01 3 11.02 3 10 C16.86 10 30.72 10 45 10 C45 7.03 45 4.06 45 1 C30.15 1 15.3 1 0 1 C0 0.67 0 0.34 0 0 Z " fill="#5B5B5B" transform="translate(70,311)"/>
<path d="M0 0 C1.65 0 3.3 0 5 0 C5 0.66 5 1.32 5 2 C7.97 2.495 7.97 2.495 11 3 C11 3.66 11 4.32 11 5 C13.31 5 15.62 5 18 5 C18 6.65 18 8.3 18 10 C14.54168414 10.02894547 11.08339928 10.04678 7.625 10.0625 C6.14773437 10.07506836 6.14773437 10.07506836 4.640625 10.08789062 C3.22910156 10.09272461 3.22910156 10.09272461 1.7890625 10.09765625 C0.91975098 10.10289307 0.05043945 10.10812988 -0.84521484 10.11352539 C-3 10 -3 10 -5 9 C-6.70363822 8.77377919 -8.41328701 8.59111527 -10.125 8.4375 C-11.03507813 8.35371094 -11.94515625 8.26992187 -12.8828125 8.18359375 C-13.93082031 8.09271484 -13.93082031 8.09271484 -15 8 C-15 7.01 -15 6.02 -15 5 C-17.64 5 -20.28 5 -23 5 C-23 4.34 -23 3.68 -23 3 C-23.66 2.67 -24.32 2.34 -25 2 C-21 2 -17 2 -13 2 C-13 2.66 -13 3.32 -13 4 C-9.04504575 6.61537297 -4.83172627 6.44264274 -0.25 6.625 C0.54277344 6.66367188 1.33554688 6.70234375 2.15234375 6.7421875 C4.10119416 6.836108 6.05056451 6.91912822 8 7 C8 6.34 8 5.68 8 5 C7.05125 4.690625 6.1025 4.38125 5.125 4.0625 C2 3 2 3 0 2 C0 1.34 0 0.68 0 0 Z " fill="#7FCBF2" transform="translate(228,235)"/>
<path d="M0 0 C12.87 0 25.74 0 39 0 C39 4.29 39 8.58 39 13 C28.77 13 18.54 13 8 13 C8 12.01 8 11.02 8 10 C17.9 10 27.8 10 38 10 C38 7.03 38 4.06 38 1 C27.11 1 16.22 1 5 1 C5 1.66 5 2.32 5 3 C3.35 3 1.7 3 0 3 C0 3.66 0 4.32 0 5 C-0.66 5 -1.32 5 -2 5 C-2 4.01 -2 3.02 -2 2 C-1.34 2 -0.68 2 0 2 C0 1.34 0 0.68 0 0 Z " fill="#696969" transform="translate(136,311)"/>
<path d="M0 0 C0.99 0 1.98 0 3 0 C3 13.53 3 27.06 3 41 C-1.29 41 -5.58 41 -10 41 C-10 40.01 -10 39.02 -10 38 C-6.7 38 -3.4 38 0 38 C0 25.46 0 12.92 0 0 Z " fill="#9A9A9A" transform="translate(200,324)"/>
<path d="M0 0 C15.18 0 30.36 0 46 0 C46 0.33 46 0.66 46 1 C31.81 1 17.62 1 3 1 C3 1.99 3 2.98 3 4 C12.9 4 22.8 4 33 4 C33 4.99 33 5.98 33 7 C22.77 7 12.54 7 2 7 C2 6.34 2 5.68 2 5 C1.34 5 0.68 5 0 5 C0 3.35 0 1.7 0 0 Z " fill="#DDDDDD" transform="translate(425,324)"/>
<path d="M0 0 C12.54 0 25.08 0 38 0 C38 4.29 38 8.58 38 13 C27.11 13 16.22 13 5 13 C5 12.01 5 11.02 5 10 C15.56 10 26.12 10 37 10 C37 7.03 37 4.06 37 1 C24.79 1.33 12.58 1.66 0 2 C0 1.34 0 0.68 0 0 Z " fill="#5A5A5A" transform="translate(264,311)"/>
<path d="M0 0 C0 0.66 0 1.32 0 2 C3.3 2 6.6 2 10 2 C10 2.99 10 3.98 10 5 C11.65 5 13.3 5 15 5 C15 5.66 15 6.32 15 7 C15.99 7.33 16.98 7.66 18 8 C15.36 8 12.72 8 10 8 C10 7.34 10 6.68 10 6 C8.35 6 6.7 6 5 6 C5 5.01 5 4.02 5 3 C-8.2 3 -21.4 3 -35 3 C-35 3.66 -35 4.32 -35 5 C-35.99 5 -36.98 5 -38 5 C-38 4.01 -38 3.02 -38 2 C-25.4698302 -0.79001793 -12.75700521 -0.1938528 0 0 Z " fill="#81C6EA" transform="translate(274,59)"/>
<path d="M0 0 C15.18 0 30.36 0 46 0 C46 0.99 46 1.98 46 3 C30.82 3 15.64 3 0 3 C0 2.01 0 1.02 0 0 Z " fill="#8D8D8D" transform="translate(317,362)"/>
<path d="M0 0 C15.18 0 30.36 0 46 0 C46 0.99 46 1.98 46 3 C30.82 3 15.64 3 0 3 C0 2.01 0 1.02 0 0 Z " fill="#C7C7C7" transform="translate(412,349)"/>
<path d="M0 0 C0.66 0 1.32 0 2 0 C2 16.83 2 33.66 2 51 C5.3 51 8.6 51 12 51 C12 51.99 12 52.98 12 54 C8.04 54 4.08 54 0 54 C0 36.18 0 18.36 0 0 Z " fill="#7B7B7B" transform="translate(387,311)"/>
<path d="M0 0 C2.31 0 4.62 0 7 0 C7 0.66 7 1.32 7 2 C10.3 2 13.6 2 17 2 C17 1.34 17 0.68 17 0 C17.99 0 18.98 0 20 0 C20 0.99 20 1.98 20 3 C20.99 3.33 21.98 3.66 23 4 C23 4.99 23 5.98 23 7 C13.76 7 4.52 7 -5 7 C-5 6.01 -5 5.02 -5 4 C-3.35 3.67 -1.7 3.34 0 3 C0 2.01 0 1.02 0 0 Z " fill="#FDE9DC" transform="translate(328,156)"/>
<path d="M0 0 C14.52 0 29.04 0 44 0 C44 0.99 44 1.98 44 3 C29.48 3 14.96 3 0 3 C0 2.01 0 1.02 0 0 Z " fill="#BABABA" transform="translate(317,349)"/>
<path d="M0 0 C14.52 0 29.04 0 44 0 C44 0.99 44 1.98 44 3 C29.48 3 14.96 3 0 3 C0 2.01 0 1.02 0 0 Z " fill="#696969" transform="translate(330,321)"/>
<path d="M0 0 C9.24 0 18.48 0 28 0 C28 0.99 28 1.98 28 3 C27.01 3 26.02 3 25 3 C25 2.34 25 1.68 25 1 C17.74 1 10.48 1 3 1 C3 3.97 3 6.94 3 10 C9.6 10 16.2 10 23 10 C23 10.99 23 11.98 23 13 C15.41 13 7.82 13 0 13 C0 8.71 0 4.42 0 0 Z " fill="#737373" transform="translate(80,331)"/>
<path d="M0 0 C0.99 0 1.98 0 3 0 C3 4.29 3 8.58 3 13 C-7.89 13 -18.78 13 -30 13 C-30 12.01 -30 11.02 -30 10 C-20.1 10 -10.2 10 0 10 C0 6.7 0 3.4 0 0 Z " fill="#818181" transform="translate(299,331)"/>
<path d="M0 0 C0.99 0 1.98 0 3 0 C3 4.29 3 8.58 3 13 C-7.89 13 -18.78 13 -30 13 C-30 14.65 -30 16.3 -30 18 C-29.34 18 -28.68 18 -28 18 C-28 18.99 -28 19.98 -28 21 C-28.99 21 -29.98 21 -31 21 C-31 17.37 -31 13.74 -31 10 C-20.11 10 -9.22 10 2 10 C2 7.03 2 4.06 2 1 C1.34 0.67 0.68 0.34 0 0 Z " fill="#909090" transform="translate(172,331)"/>
<path d="M0 0 C16.83 0 33.66 0 51 0 C51 3.63 51 7.26 51 11 C37.14 11 23.28 11 9 11 C8.67 11.66 8.34 12.32 8 13 C8 12.01 8 11.02 8 10 C21.53 10 35.06 10 49 10 C49 7.03 49 4.06 49 1 C33.82 1 18.64 1 3 1 C3 1.66 3 2.32 3 3 C2.34 3 1.68 3 1 3 C1 3.66 1 4.32 1 5 C0.01 5 -0.98 5 -2 5 C-2 4.01 -2 3.02 -2 2 C-1.34 2 -0.68 2 0 2 C0 1.34 0 0.68 0 0 Z " fill="#414141" transform="translate(419,311)"/>
<path d="M0 0 C0.99 0 1.98 0 3 0 C3.07410727 5.64165361 3.12858167 11.28302447 3.16479492 16.92504883 C3.1798898 18.84469538 3.20036773 20.7643074 3.22631836 22.68383789 C3.26267109 25.44165564 3.27971912 28.1990178 3.29296875 30.95703125 C3.30845261 31.81649857 3.32393646 32.67596588 3.33988953 33.56147766 C3.34011612 34.36208115 3.34034271 35.16268463 3.34057617 35.98754883 C3.34723801 36.6914827 3.35389984 37.39541656 3.36076355 38.12068176 C3 40 3 40 0 43 C0 28.81 0 14.62 0 0 Z " fill="#1A1A1A" transform="translate(190,319)"/>
<path d="M0 0 C0.33 0 0.66 0 1 0 C1 14.52 1 29.04 1 44 C0.505 42.515 0.505 42.515 0 41 C-0.66 41 -1.32 41 -2 41 C-2 28.46 -2 15.92 -2 3 C-1.34 3 -0.68 3 0 3 C0 2.01 0 1.02 0 0 Z " fill="#E7E7E7" transform="translate(189,321)"/>
<path d="M0 0 C0.33 0.99 0.66 1.98 1 3 C1.66 3 2.32 3 3 3 C3 3.99 3 4.98 3 6 C3.99 6 4.98 6 6 6 C6 9.3 6 12.6 6 16 C5.01 16 4.02 16 3 16 C3 15.34 3 14.68 3 14 C2.34 14 1.68 14 1 14 C0.67 15.32 0.34 16.64 0 18 C-1.4606285 15.35261084 -2 14.10551666 -2 11 C-2.66 11 -3.32 11 -4 11 C-4.12375 10.360625 -4.2475 9.72125 -4.375 9.0625 C-4.58125 8.381875 -4.7875 7.70125 -5 7 C-5.66 6.67 -6.32 6.34 -7 6 C-7 5.01 -7 4.02 -7 3 C-5.02 3 -3.04 3 -1 3 C-0.67 2.01 -0.34 1.02 0 0 Z " fill="#E3E5E7" transform="translate(166,201)"/>
<path d="M0 0 C0.66 0 1.32 0 2 0 C2 1.32 2 2.64 2 4 C12.89 4 23.78 4 35 4 C35 4.99 35 5.98 35 7 C24.11 7 13.22 7 2 7 C2 6.34 2 5.68 2 5 C1.34 5 0.68 5 0 5 C0 3.35 0 1.7 0 0 Z " fill="#D1D1D1" transform="translate(328,324)"/>
<path d="M0 0 C0.99 0 1.98 0 3 0 C3 0.66 3 1.32 3 2 C14.55 2 26.1 2 38 2 C38 2.99 38 3.98 38 5 C27.11 5 16.22 5 5 5 C5 4.34 5 3.68 5 3 C3.35 2.67 1.7 2.34 0 2 C0 1.34 0 0.68 0 0 Z " fill="#7A7A7A" transform="translate(323,339)"/>
<path d="M0 0 C11.55 0 23.1 0 35 0 C35 0.99 35 1.98 35 3 C23.45 3 11.9 3 0 3 C0 2.01 0 1.02 0 0 Z " fill="#8E8E8E" transform="translate(70,362)"/>
<path d="M0 0 C0.99 0 1.98 0 3 0 C3 11.55 3 23.1 3 35 C2.01 35 1.02 35 0 35 C0 23.45 0 11.9 0 0 Z " fill="#6B6B6B" transform="translate(256,319)"/>
<path d="M0 0 C0.66 0 1.32 0 2 0 C2.125 5.75 2.125 5.75 1 8 C-9.23 8 -19.46 8 -30 8 C-30 7.01 -30 6.02 -30 5 C-20.1 5 -10.2 5 0 5 C0 3.35 0 1.7 0 0 Z " fill="#B6B6B6" transform="translate(103,344)"/>
<path d="M0 0 C11.55 0 23.1 0 35 0 C35 0.99 35 1.98 35 3 C30.33691801 3.02468646 25.67387392 3.04285349 21.01074219 3.05493164 C19.42382139 3.05996588 17.83690523 3.06679369 16.25 3.07543945 C13.97134251 3.08754482 11.69274624 3.09323733 9.4140625 3.09765625 C8.34679428 3.10539818 8.34679428 3.10539818 7.25796509 3.11329651 C2.22774341 3.11387171 2.22774341 3.11387171 0 2 C0 1.34 0 0.68 0 0 Z " fill="#7C7C7C" transform="translate(267,362)"/>
<path d="M0 0 C13.53 0 27.06 0 41 0 C41 0.33 41 0.66 41 1 C38.36 1 35.72 1 33 1 C33 1.66 33 2.32 33 3 C22.77 3 12.54 3 2 3 C2 2.34 2 1.68 2 1 C1.34 0.67 0.68 0.34 0 0 Z " fill="#FDE2CE" transform="translate(213,247)"/>
<path d="M0 0 C1.11826172 0.00322266 2.23652344 0.00644531 3.38867188 0.00976562 C4.55591797 0.01814453 5.72316406 0.02652344 6.92578125 0.03515625 C8.10462891 0.03966797 9.28347656 0.04417969 10.49804688 0.04882812 C13.41150914 0.06062352 16.32486988 0.07708355 19.23828125 0.09765625 C19.23828125 0.75765625 19.23828125 1.41765625 19.23828125 2.09765625 C20.88828125 2.09765625 22.53828125 2.09765625 24.23828125 2.09765625 C24.23828125 3.08765625 24.23828125 4.07765625 24.23828125 5.09765625 C26.87828125 5.09765625 29.51828125 5.09765625 32.23828125 5.09765625 C32.23828125 5.75765625 32.23828125 6.41765625 32.23828125 7.09765625 C28.93828125 6.76765625 25.63828125 6.43765625 22.23828125 6.09765625 C22.23828125 5.10765625 22.23828125 4.11765625 22.23828125 3.09765625 C12.00828125 3.09765625 1.77828125 3.09765625 -8.76171875 3.09765625 C-8.76171875 2.43765625 -8.76171875 1.77765625 -8.76171875 1.09765625 C-5.58384334 0.03836445 -3.33582932 -0.01693314 0 0 Z " fill="#7EC6EB" transform="translate(254.76171875,96.90234375)"/>
<path d="M0 0 C11.88 0 23.76 0 36 0 C36 0.99 36 1.98 36 3 C25.11 3 14.22 3 3 3 C3 2.34 3 1.68 3 1 C2.01 0.67 1.02 0.34 0 0 Z " fill="#8D8D8D" transform="translate(422,341)"/>
<path d="M0 0 C1.32 0 2.64 0 4 0 C4 1.65 4 3.3 4 5 C3.34 5 2.68 5 2 5 C2 4.34 2 3.68 2 3 C-0.64 3 -3.28 3 -6 3 C-6 3.66 -6 4.32 -6 5 C-14.25 5 -22.5 5 -31 5 C-31 4.34 -31 3.68 -31 3 C-32.65 3 -34.3 3 -36 3 C-36 2.67 -36 2.34 -36 2 C-24.12 2 -12.24 2 0 2 C0 1.34 0 0.68 0 0 Z " fill="#FD7E2B" transform="translate(313,204)"/>
<path d="M0 0 C0.99 0 1.98 0 3 0 C3 9.9 3 19.8 3 30 C3.66 30 4.32 30 5 30 C5 32.64 5 35.28 5 38 C5.66 38 6.32 38 7 38 C7 39.32 7 40.64 7 42 C6.01 41.67 5.02 41.34 4 41 C1.39804868 34.83748371 1.80512514 28.59326599 2 22 C1.34 22 0.68 22 0 22 C0 14.74 0 7.48 0 0 Z " fill="#78B3DD" transform="translate(190,159)"/>
<path d="M0 0 C0.99 0 1.98 0 3 0 C3 0.99 3 1.98 3 3 C3.66 3 4.32 3 5 3 C5 4.65 5 6.3 5 8 C5.66 8 6.32 8 7 8 C7 21.53 7 35.06 7 49 C6.34 49 5.68 49 5 49 C4.67 34.81 4.34 20.62 4 6 C3.34 6 2.68 6 2 6 C2 4.35 2 2.7 2 1 C1.34 0.67 0.68 0.34 0 0 Z " fill="#3A3A3A" transform="translate(236,313)"/>
<path d="M0 0 C0.99 0 1.98 0 3 0 C3 0.99 3 1.98 3 3 C2.34 3 1.68 3 1 3 C1 17.19 1 31.38 1 46 C1.66 46 2.32 46 3 46 C3 46.99 3 47.98 3 49 C2.01 49 1.02 49 0 49 C0 44.38 0 39.76 0 35 C-0.66 35 -1.32 35 -2 35 C-2 28.4 -2 21.8 -2 15 C-1.34 15 -0.68 15 0 15 C0 10.05 0 5.1 0 0 Z " fill="#6C9BCD" transform="translate(159,138)"/>
<path d="M0 0 C10.56 0 21.12 0 32 0 C32 0.99 32 1.98 32 3 C21.77 3 11.54 3 1 3 C0.67 2.01 0.34 1.02 0 0 Z " fill="#C0C0C0" transform="translate(270,349)"/>
<path d="M0 0 C0.99 0 1.98 0 3 0 C3 10.23 3 20.46 3 31 C2.01 31 1.02 31 0 31 C0 20.77 0 10.54 0 0 Z " fill="#C2C2C2" transform="translate(57,321)"/>
<path d="M0 0 C9.24 0 18.48 0 28 0 C28 0.99 28 1.98 28 3 C18.76 3 9.52 3 0 3 C0 2.01 0 1.02 0 0 Z " fill="#6F6F6F" transform="translate(203,321)"/>
<path d="M0 0 C9.24 0 18.48 0 28 0 C28 0.99 28 1.98 28 3 C18.76 3 9.52 3 0 3 C0 2.01 0 1.02 0 0 Z " fill="#FDCDAD" transform="translate(243,278)"/>
<path d="M0 0 C10.23 0 20.46 0 31 0 C31 3.3 31 6.6 31 10 C18.46 10 5.92 10 -7 10 C-7 9.01 -7 8.02 -7 7 C-6.01 7 -5.02 7 -4 7 C-4 7.66 -4 8.32 -4 9 C7.22 9 18.44 9 30 9 C30 6.36 30 3.72 30 1 C20.1 1 10.2 1 0 1 C0 0.67 0 0.34 0 0 Z " fill="#131313" transform="translate(271,352)"/>
<path d="M0 0 C4.29 0 8.58 0 13 0 C13 0.66 13 1.32 13 2 C21.25 2 29.5 2 38 2 C38 1.34 38 0.68 38 0 C40.64 0 43.28 0 46 0 C46 0.99 46 1.98 46 3 C31.81 3 17.62 3 3 3 C3 2.34 3 1.68 3 1 C2.01 0.67 1.02 0.34 0 0 Z " fill="#FD7118" transform="translate(233,275)"/>
<path d="M0 0 C1.65 0 3.3 0 5 0 C5 0.66 5 1.32 5 2 C6.65 2 8.3 2 10 2 C10 2.99 10 3.98 10 5 C11.65 5 13.3 5 15 5 C15 5.66 15 6.32 15 7 C16.1446875 7.185625 16.1446875 7.185625 17.3125 7.375 C20 8 20 8 23 10 C23 10.66 23 11.32 23 12 C23.66 12 24.32 12 25 12 C25 12.99 25 13.98 25 15 C24.01 15 23.02 15 22 15 C22 14.34 22 13.68 22 13 C21.34 13 20.68 13 20 13 C20 12.01 20 11.02 20 10 C18.35 10 16.7 10 15 10 C15 9.34 15 8.68 15 8 C13.35 8 11.7 8 10 8 C10 7.34 10 6.68 10 6 C8.35 5.67 6.7 5.34 5 5 C5 4.34 5 3.68 5 3 C3.35 3 1.7 3 0 3 C0 2.01 0 1.02 0 0 Z " fill="#4BCFF6" transform="translate(292,67)"/>
<path d="M0 0 C0.99 0 1.98 0 3 0 C3 8.25 3 16.5 3 25 C2.01 25 1.02 25 0 25 C0 16.75 0 8.5 0 0 Z " fill="#B5B5B5" transform="translate(70,324)"/>
<path d="M0 0 C0.82062424 0.00007553 1.64124847 0.00015106 2.48674011 0.00022888 C3.80875175 0.00797081 3.80875175 0.00797081 5.1574707 0.01586914 C6.5161602 0.01799156 6.5161602 0.01799156 7.90229797 0.02015686 C10.79598286 0.02575538 13.68959044 0.03830758 16.58325195 0.05102539 C18.54483938 0.05604058 20.50642801 0.06060346 22.46801758 0.06469727 C27.27729217 0.07572432 32.08650895 0.09298792 36.89575195 0.11352539 C36.89575195 0.77352539 36.89575195 1.43352539 36.89575195 2.11352539 C37.55575195 2.44352539 38.21575195 2.77352539 38.89575195 3.11352539 C36.58575195 3.11352539 34.27575195 3.11352539 31.89575195 3.11352539 C31.89575195 2.45352539 31.89575195 1.79352539 31.89575195 1.11352539 C22.65575195 1.11352539 13.41575195 1.11352539 3.89575195 1.11352539 C3.89575195 1.77352539 3.89575195 2.43352539 3.89575195 3.11352539 C0.26575195 3.11352539 -3.36424805 3.11352539 -7.10424805 3.11352539 C-7.10424805 2.45352539 -7.10424805 1.79352539 -7.10424805 1.11352539 C-4.37318294 0.20317036 -2.80531566 -0.00863174 0 0 Z " fill="#FD893C" transform="translate(324.104248046875,162.886474609375)"/>
<path d="M0 0 C0.99 0 1.98 0 3 0 C3 0.99 3 1.98 3 3 C2.34 3 1.68 3 1 3 C0.67 5.31 0.34 7.62 0 10 C-0.99 10 -1.98 10 -3 10 C-3.33 10.99 -3.66 11.98 -4 13 C-4.99 13.33 -5.98 13.66 -7 14 C-7.66 13.67 -8.32 13.34 -9 13 C-9 13.99 -9 14.98 -9 16 C-9.99 16 -10.98 16 -12 16 C-12 15.01 -12 14.02 -12 13 C-11.34 13 -10.68 13 -10 13 C-10 12.01 -10 11.02 -10 10 C-9.01 10 -8.02 10 -7 10 C-7 9.34 -7 8.68 -7 8 C-6.01 8 -5.02 8 -4 8 C-4 7.34 -4 6.68 -4 6 C-3.34 6 -2.68 6 -2 6 C-2 5.01 -2 4.02 -2 3 C-1.34 3 -0.68 3 0 3 C0 2.01 0 1.02 0 0 Z " fill="#3A93D3" transform="translate(197,79)"/>
<path d="M0 0 C0.66 0 1.32 0 2 0 C2 3.3 2 6.6 2 10 C1.34 10 0.68 10 0 10 C0.020625 11.27875 0.04125 12.5575 0.0625 13.875 C0.125 17.75 0.125 17.75 -1 20 C-1.22622081 21.70363822 -1.40888473 23.41328701 -1.5625 25.125 C-1.64628906 26.03507812 -1.73007812 26.94515625 -1.81640625 27.8828125 C-1.87699219 28.58148438 -1.93757813 29.28015625 -2 30 C-2.99 30 -3.98 30 -5 30 C-5 28.68 -5 27.36 -5 26 C-4.34 26 -3.68 26 -3 26 C-3 21.71 -3 17.42 -3 13 C-2.34 13 -1.68 13 -1 13 C-1.01160156 12.14535156 -1.02320313 11.29070312 -1.03515625 10.41015625 C-1.04869141 8.75306641 -1.04869141 8.75306641 -1.0625 7.0625 C-1.07410156 5.96035156 -1.08570313 4.85820312 -1.09765625 3.72265625 C-1 1 -1 1 0 0 Z " fill="#F8A46A" transform="translate(361,171)"/>
<path d="M0 0 C1.65 0 3.3 0 5 0 C5 0.66 5 1.32 5 2 C7.97 2.495 7.97 2.495 11 3 C11 3.66 11 4.32 11 5 C13.31 5 15.62 5 18 5 C18 5.99 18 6.98 18 8 C11.07 8 4.14 8 -3 8 C-3 7.67 -3 7.34 -3 7 C0.63 7 4.26 7 8 7 C8 6.34 8 5.68 8 5 C7.05125 4.690625 6.1025 4.38125 5.125 4.0625 C2 3 2 3 0 2 C0 1.34 0 0.68 0 0 Z " fill="#3FBAF3" transform="translate(228,235)"/>
<path d="M0 0 C0.99 0 1.98 0 3 0 C3 0.99 3 1.98 3 3 C3.99 3 4.98 3 6 3 C6 3.66 6 4.32 6 5 C6.66 5 7.32 5 8 5 C7.67 5.99 7.34 6.98 7 8 C5.68 8 4.36 8 3 8 C3 8.66 3 9.32 3 10 C1.02 10 -0.96 10 -3 10 C-3 10.66 -3 11.32 -3 12 C-4.32 12.33 -5.64 12.66 -7 13 C-7 13.66 -7 14.32 -7 15 C-7.99 15 -8.98 15 -10 15 C-10 14.34 -10 13.68 -10 13 C-9.360625 12.896875 -8.72125 12.79375 -8.0625 12.6875 C-7.0415625 12.3471875 -7.0415625 12.3471875 -6 12 C-5.67 11.01 -5.34 10.02 -5 9 C-4.34 9 -3.68 9 -3 9 C-3 8.34 -3 7.68 -3 7 C-1.35 7 0.3 7 2 7 C2 5.68 2 4.36 2 3 C1.34 3 0.68 3 0 3 C0 2.01 0 1.02 0 0 Z " fill="#C1F0FB" transform="translate(320,82)"/>
<path d="M0 0 C0.33 0 0.66 0 1 0 C1 2.97 1 5.94 1 9 C15.85 9 30.7 9 46 9 C46 8.34 46 7.68 46 7 C46.99 7 47.98 7 49 7 C49 7.99 49 8.98 49 10 C32.83 10 16.66 10 0 10 C0 6.7 0 3.4 0 0 Z " fill="#151515" transform="translate(317,352)"/>
<path d="M0 0 C12.87 0 25.74 0 39 0 C39 3.3 39 6.6 39 10 C38.67 10 38.34 10 38 10 C38 7.03 38 4.06 38 1 C27.11 1 16.22 1 5 1 C5 1.66 5 2.32 5 3 C3.35 3 1.7 3 0 3 C0 3.66 0 4.32 0 5 C-0.66 5 -1.32 5 -2 5 C-2 4.01 -2 3.02 -2 2 C-1.34 2 -0.68 2 0 2 C0 1.34 0 0.68 0 0 Z " fill="#393939" transform="translate(136,311)"/>
<path d="M0 0 C2.64 0 5.28 0 8 0 C8 1.65 8 3.3 8 5 C7.34 5 6.68 5 6 5 C6 5.99 6 6.98 6 8 C5.01 7.67 4.02 7.34 3 7 C3.66 7 4.32 7 5 7 C5 5.35 5 3.7 5 2 C4.01 2.495 4.01 2.495 3 3 C0.89471067 3.08543895 -1.21331157 3.10714725 -3.3203125 3.09765625 C-4.57714844 3.09443359 -5.83398438 3.09121094 -7.12890625 3.08789062 C-8.44761719 3.07951172 -9.76632812 3.07113281 -11.125 3.0625 C-12.46484211 3.05748489 -13.804686 3.05292201 -15.14453125 3.04882812 C-18.42973206 3.03701086 -21.71484397 3.02053617 -25 3 C-25 2.67 -25 2.34 -25 2 C-16.75 2 -8.5 2 0 2 C0 1.34 0 0.68 0 0 Z " fill="#FBD2B5" transform="translate(307,207)"/>
<path d="M0 0 C1.65 0 3.3 0 5 0 C5 0.66 5 1.32 5 2 C16.55 2 28.1 2 40 2 C40 1.34 40 0.68 40 0 C40.99 0 41.98 0 43 0 C43 0.99 43 1.98 43 3 C29.47 3 15.94 3 2 3 C2 2.34 2 1.68 2 1 C1.34 0.67 0.68 0.34 0 0 Z " fill="#141414" transform="translate(65,359)"/>
<path d="M0 0 C0.99 0 1.98 0 3 0 C3 0.99 3 1.98 3 3 C-12.84 3 -28.68 3 -45 3 C-45 2.67 -45 2.34 -45 2 C-30.15 2 -15.3 2 0 2 C0 1.34 0 0.68 0 0 Z " fill="#111111" transform="translate(460,359)"/>
<path d="M0 0 C0.33 0 0.66 0 1 0 C1 3.3 1 6.6 1 10 C-11.87 10 -24.74 10 -38 10 C-38 9.01 -38 8.02 -38 7 C-37.01 7 -36.02 7 -35 7 C-35 7.66 -35 8.32 -35 9 C-23.45 9 -11.9 9 0 9 C0 6.03 0 3.06 0 0 Z " fill="#202020" transform="translate(174,352)"/>
<path d="M0 0 C15.18 0 30.36 0 46 0 C46 0.33 46 0.66 46 1 C31.81 1 17.62 1 3 1 C3 1.66 3 2.32 3 3 C2.01 3 1.02 3 0 3 C0 2.01 0 1.02 0 0 Z " fill="#E4E4E4" transform="translate(70,308)"/>
<path d="M0 0 C0.99 0 1.98 0 3 0 C3 0.99 3 1.98 3 3 C2.01 3 1.02 3 0 3 C0 3.66 0 4.32 0 5 C-0.66 5 -1.32 5 -2 5 C-2 6.65 -2 8.3 -2 10 C-2.99 10 -3.98 10 -5 10 C-5 10.99 -5 11.98 -5 13 C-6.65 13 -8.3 13 -10 13 C-10 12.01 -10 11.02 -10 10 C-8.68 10 -7.36 10 -6 10 C-5.67 8.02 -5.34 6.04 -5 4 C-4.34 4 -3.68 4 -3 4 C-3 3.34 -3 2.68 -3 2 C-2.01 2 -1.02 2 0 2 C0 1.34 0 0.68 0 0 Z " fill="#61D0F3" transform="translate(307,100)"/>
<path d="M0 0 C0.99 0 1.98 0 3 0 C3 0.99 3 1.98 3 3 C-11.19 3 -25.38 3 -40 3 C-40 2.67 -40 2.34 -40 2 C-26.8 2 -13.6 2 0 2 C0 1.34 0 0.68 0 0 Z " fill="#A3A3A3" transform="translate(455,349)"/>
<path d="M0 0 C12.21 0 24.42 0 37 0 C37 0.99 37 1.98 37 3 C35.02 3 33.04 3 31 3 C31 2.34 31 1.68 31 1 C20.77 1 10.54 1 0 1 C0 0.67 0 0.34 0 0 Z " fill="#515151" transform="translate(427,331)"/>
<path d="M0 0 C10.23 0 20.46 0 31 0 C31 0.33 31 0.66 31 1 C21.1 1 11.2 1 1 1 C1 3.31 1 5.62 1 8 C1.66 8 2.32 8 3 8 C3 8.99 3 9.98 3 11 C2.01 11 1.02 11 0 11 C0 7.37 0 3.74 0 0 Z " fill="#5B5B5B" transform="translate(141,341)"/>
<path d="M0 0 C10.23 0 20.46 0 31 0 C31 0.33 31 0.66 31 1 C21.76 1 12.52 1 3 1 C3 1.66 3 2.32 3 3 C2.34 3 1.68 3 1 3 C1 3.66 1 4.32 1 5 C0.01 5 -0.98 5 -2 5 C-2 4.01 -2 3.02 -2 2 C-1.34 2 -0.68 2 0 2 C0 1.34 0 0.68 0 0 Z " fill="#3E3E3E" transform="translate(419,311)"/>
<path d="M0 0 C1.98 0 3.96 0 6 0 C6 0.66 6 1.32 6 2 C7.65 2 9.3 2 11 2 C11 2.66 11 3.32 11 4 C12.65 4 14.3 4 16 4 C16 4.99 16 5.98 16 7 C15.01 7 14.02 7 13 7 C13 6.34 13 5.68 13 5 C10.69 5 8.38 5 6 5 C6 4.34 6 3.68 6 3 C4.02 3 2.04 3 0 3 C0 2.01 0 1.02 0 0 Z " fill="#FBD3B8" transform="translate(197,240)"/>
<path d="M0 0 C0.99 0 1.98 0 3 0 C3 5.94 3 11.88 3 18 C2.34 18 1.68 18 1 18 C0.67 18.99 0.34 19.98 0 21 C-0.08236688 17.62295803 0.06801363 14.53901873 0.5625 11.1875 C0.706875 10.135625 0.85125 9.08375 1 8 C0.67 7.67 0.34 7.34 0 7 C-0.04092937 4.66702567 -0.04241723 2.33294775 0 0 Z " fill="#F98639" transform="translate(363,120)"/>
<path d="M0 0 C0.66 0 1.32 0 2 0 C2 0.66 2 1.32 2 2 C12.23 2 22.46 2 33 2 C33 2.99 33 3.98 33 5 C32.01 5 31.02 5 30 5 C30 4.34 30 3.68 30 3 C20.1 3 10.2 3 0 3 C0 2.01 0 1.02 0 0 Z " fill="#E9E9E9" transform="translate(142,326)"/>
<path d="M0 0 C10.89 0 21.78 0 33 0 C33 0.99 33 1.98 33 3 C32.34 3 31.68 3 31 3 C31 2.34 31 1.68 31 1 C21.76 1 12.52 1 3 1 C3 1.66 3 2.32 3 3 C2.01 3 1.02 3 0 3 C0 2.01 0 1.02 0 0 Z " fill="#E1E1E1" transform="translate(200,308)"/>
<path d="M0 0 C3.3 0 6.6 0 10 0 C10 0.99 10 1.98 10 3 C11.65 3 13.3 3 15 3 C15 3.66 15 4.32 15 5 C15.99 5.33 16.98 5.66 18 6 C15.36 6 12.72 6 10 6 C10 5.34 10 4.68 10 4 C8.35 4 6.7 4 5 4 C5 3.01 5 2.02 5 1 C3.35 1 1.7 1 0 1 C0 0.67 0 0.34 0 0 Z " fill="#39BAEC" transform="translate(274,61)"/>
<path d="M0 0 C11.88 0 23.76 0 36 0 C36 0.99 36 1.98 36 3 C35.01 3 34.02 3 33 3 C33 2.34 33 1.68 33 1 C22.11 1 11.22 1 0 1 C0 0.67 0 0.34 0 0 Z " fill="#4A4A4A" transform="translate(330,331)"/>
<path d="M0 0 C0.99 0 1.98 0 3 0 C3 0.66 3 1.32 3 2 C5.31 2 7.62 2 10 2 C10 2.66 10 3.32 10 4 C11.98 4 13.96 4 16 4 C16 4.99 16 5.98 16 7 C14.02 7 12.04 7 10 7 C10 6.34 10 5.68 10 5 C8.68 5 7.36 5 6 5 C6 4.34 6 3.68 6 3 C4.02 3 2.04 3 0 3 C0 2.01 0 1.02 0 0 Z " fill="#FB9958" transform="translate(215,268)"/>
<path d="M0 0 C0.99 0 1.98 0 3 0 C3 0.66 3 1.32 3 2 C3.99 2 4.98 2 6 2 C6 2.99 6 3.98 6 5 C5.01 5 4.02 5 3 5 C3 5.66 3 6.32 3 7 C3.99 7 4.98 7 6 7 C6 7.99 6 8.98 6 10 C5.01 10 4.02 10 3 10 C3 9.34 3 8.68 3 8 C2.01 8 1.02 8 0 8 C0 5.36 0 2.72 0 0 Z " fill="#E4DFDD" transform="translate(187,227)"/>
<path d="M0 0 C0.99 0 1.98 0 3 0 C3 0.66 3 1.32 3 2 C3.66 2 4.32 2 5 2 C5 2.99 5 3.98 5 5 C5.66 5 6.32 5 7 5 C7 5.99 7 6.98 7 8 C6.34 8 5.68 8 5 8 C4.67 9.32 4.34 10.64 4 12 C2.5393715 9.35261084 2 8.10551666 2 5 C1.34 5 0.68 5 0 5 C0 3.35 0 1.7 0 0 Z " fill="#F7C49E" transform="translate(162,207)"/>
<path d="M0 0 C0.80759766 -0.01224609 1.61519531 -0.02449219 2.44726562 -0.03710938 C6.81602255 -0.04784342 10.21004059 0.14632915 14.1875 2.1875 C14.1875 2.5175 14.1875 2.8475 14.1875 3.1875 C11.5475 3.1875 8.9075 3.1875 6.1875 3.1875 C6.1875 2.5275 6.1875 1.8675 6.1875 1.1875 C2.2275 1.1875 -1.7325 1.1875 -5.8125 1.1875 C-5.8125 1.8475 -5.8125 2.5075 -5.8125 3.1875 C-7.4625 3.1875 -9.1125 3.1875 -10.8125 3.1875 C-10.8125 2.5275 -10.8125 1.8675 -10.8125 1.1875 C-7.45228043 -0.49260978 -3.69152188 0.00290442 0 0 Z " fill="#FBA66E" transform="translate(338.8125,101.8125)"/>
<path d="M0 0 C0.67957764 0.15847412 1.35915527 0.31694824 2.05932617 0.48022461 C5.41687815 1.07368481 8.64238061 1.21487942 12.05078125 1.31640625 C12.70958786 1.33718735 13.36839447 1.35796844 14.04716492 1.37937927 C16.13551185 1.44435489 18.22397612 1.50351575 20.3125 1.5625 C21.7350378 1.60573479 23.15756406 1.6493506 24.58007812 1.69335938 C28.05326297 1.79998216 31.52657726 1.90139348 35 2 C35 2.33 35 2.66 35 3 C30.33691801 3.02468646 25.67387392 3.04285349 21.01074219 3.05493164 C19.42382139 3.05996588 17.83690523 3.06679369 16.25 3.07543945 C13.97134251 3.08754482 11.69274624 3.09323733 9.4140625 3.09765625 C8.34679428 3.10539818 8.34679428 3.10539818 7.25796509 3.11329651 C2.22774341 3.11387171 2.22774341 3.11387171 0 2 C0 1.34 0 0.68 0 0 Z " fill="#A9A9A9" transform="translate(267,362)"/>
<path d="M0 0 C8.58 0 17.16 0 26 0 C26 0.99 26 1.98 26 3 C25.01 3 24.02 3 23 3 C23 2.34 23 1.68 23 1 C15.74 1 8.48 1 1 1 C1 3.97 1 6.94 1 10 C0.67 10 0.34 10 0 10 C0 6.7 0 3.4 0 0 Z " fill="#515151" transform="translate(82,331)"/>
<path d="M0 0 C0.99 0 1.98 0 3 0 C3 0.99 3 1.98 3 3 C2.34 3 1.68 3 1 3 C1.33 12.24 1.66 21.48 2 31 C1.34 31 0.68 31 0 31 C0 20.77 0 10.54 0 0 Z " fill="#DFDFDF" transform="translate(57,321)"/>
<path d="M0 0 C0.99 0 1.98 0 3 0 C3 4.95 3 9.9 3 15 C2.34 15 1.68 15 1 15 C0.67 15.99 0.34 16.98 0 18 C0 15.36 0 12.72 0 10 C0.66 10 1.32 10 2 10 C2 8.35 2 6.7 2 5 C1.34 5 0.68 5 0 5 C0 3.35 0 1.7 0 0 Z " fill="#3B3B3B" transform="translate(113,339)"/>
<path d="M0 0 C10.56 0 21.12 0 32 0 C32 0.99 32 1.98 32 3 C31.01 3 30.02 3 29 3 C29 2.34 29 1.68 29 1 C19.43 1 9.86 1 0 1 C0 0.67 0 0.34 0 0 Z " fill="#EAEAEA" transform="translate(270,328)"/>
<path d="M0 0 C9.24 0 18.48 0 28 0 C28 0.99 28 1.98 28 3 C27.01 3 26.02 3 25 3 C25 2.34 25 1.68 25 1 C17.41 1 9.82 1 2 1 C2 1.66 2 2.32 2 3 C1.34 3 0.68 3 0 3 C0 2.01 0 1.02 0 0 Z " fill="#434343" transform="translate(203,321)"/>
<path d="M0 0 C0.66 0 1.32 0 2 0 C2 1.65 2 3.3 2 5 C1.34 5 0.68 5 0 5 C0 6.65 0 8.3 0 10 C-0.66 10 -1.32 10 -2 10 C-2.33 12.64 -2.66 15.28 -3 18 C-3.66 18 -4.32 18 -5 18 C-5 16.35 -5 14.7 -5 13 C-4.34 13 -3.68 13 -3 13 C-3.061875 12.34 -3.12375 11.68 -3.1875 11 C-2.93182247 6.90915946 -1.54304956 3.79333016 0 0 Z " fill="#1567B8" transform="translate(195,138)"/>
<path d="M0 0 C0.99 0 1.98 0 3 0 C3 0.99 3 1.98 3 3 C2.34 3 1.68 3 1 3 C1 12.24 1 21.48 1 31 C0.67 31 0.34 31 0 31 C0 20.77 0 10.54 0 0 Z " fill="#DADADA" transform="translate(128,321)"/>
<path d="M0 0 C0.33 0 0.66 0 1 0 C1 2.64 1 5.28 1 8 C1.66 8 2.32 8 3 8 C3 10.64 3 13.28 3 16 C3.66 16 4.32 16 5 16 C5 17.32 5 18.64 5 20 C4.01 19.67 3.02 19.34 2 19 C-0.60195132 12.83748371 -0.19487486 6.59326599 0 0 Z " fill="#4F9DD5" transform="translate(192,181)"/>
<path d="M0 0 C9.57 0 19.14 0 29 0 C29 0.99 29 1.98 29 3 C28.01 3 27.02 3 26 3 C26 2.34 26 1.68 26 1 C17.42 1 8.84 1 0 1 C0 0.67 0 0.34 0 0 Z " fill="#565656" transform="translate(429,341)"/>
<path d="M0 0 C3.96 0 7.92 0 12 0 C12 0.66 12 1.32 12 2 C12.99 2.33 13.98 2.66 15 3 C10.71 3 6.42 3 2 3 C2 2.34 2 1.68 2 1 C1.34 0.67 0.68 0.34 0 0 Z " fill="#FDCDAC" transform="translate(213,247)"/>
<path d="M0 0 C7.59 0 15.18 0 23 0 C23 0.66 23 1.32 23 2 C23.66 2.33 24.32 2.66 25 3 C22.69 3 20.38 3 18 3 C18 2.34 18 1.68 18 1 C12.06 1 6.12 1 0 1 C0 0.67 0 0.34 0 0 Z " fill="#FC9754" transform="translate(338,163)"/>
<path d="M0 0 C0.99 0 1.98 0 3 0 C3 1.65 3 3.3 3 5 C2.34 5 1.68 5 1 5 C1 11.6 1 18.2 1 25 C0.67 25 0.34 25 0 25 C0 16.75 0 8.5 0 0 Z " fill="#D1E1EE" transform="translate(156,148)"/>
<path d="M0 0 C0.99 0 1.98 0 3 0 C3 1.32 3 2.64 3 4 C3.66 4 4.32 4 5 4 C5 7.63 5 11.26 5 15 C4.34 15 3.68 15 3 15 C2.67 11.04 2.34 7.08 2 3 C1.34 3 0.68 3 0 3 C0 2.01 0 1.02 0 0 Z " fill="#545454" transform="translate(465,337)"/>
<path d="M0 0 C0.99 0 1.98 0 3 0 C3 3.63 3 7.26 3 11 C2.01 11 1.02 11 0 11 C0 7.37 0 3.74 0 0 Z " fill="#DCDCDC" transform="translate(116,341)"/>
<path d="M0 0 C0.99 0 1.98 0 3 0 C3 4.29 3 8.58 3 13 C2.67 12.01 2.34 11.02 2 10 C1.34 10 0.68 10 0 10 C0 6.7 0 3.4 0 0 Z " fill="#7E7E7E" transform="translate(412,321)"/>
<path d="M0 0 C1.65 0 3.3 0 5 0 C5 0.66 5 1.32 5 2 C6.65 2 8.3 2 10 2 C10 2.99 10 3.98 10 5 C12.64 5 15.28 5 18 5 C18 5.66 18 6.32 18 7 C14.7 6.67 11.4 6.34 8 6 C8 5.01 8 4.02 8 3 C6.02 3 4.04 3 2 3 C2 2.34 2 1.68 2 1 C1.34 0.67 0.68 0.34 0 0 Z " fill="#3EB6E9" transform="translate(269,97)"/>
<path d="M0 0 C0.99 0 1.98 0 3 0 C3 4.29 3 8.58 3 13 C2.34 13 1.68 13 1 13 C0.67 13.99 0.34 14.98 0 16 C0.08378906 15.34773438 0.16757812 14.69546875 0.25390625 14.0234375 C0.82554104 9.11750856 1.15311982 4.86872815 0 0 Z " fill="#5B5B5B" transform="translate(371,341)"/>
<path d="M0 0 C0.99 0 1.98 0 3 0 C3 0.66 3 1.32 3 2 C4.32 2 5.64 2 7 2 C7 2.99 7 3.98 7 5 C7.99 5 8.98 5 10 5 C10 5.99 10 6.98 10 8 C9.01 8 8.02 8 7 8 C7 7.34 7 6.68 7 6 C5.68 5.67 4.36 5.34 3 5 C3 4.34 3 3.68 3 3 C2.01 3 1.02 3 0 3 C0 2.01 0 1.02 0 0 Z " fill="#77C4ED" transform="translate(218,227)"/>
<path d="M0 0 C0.66 0 1.32 0 2 0 C2 3.3 2 6.6 2 10 C1.34 10 0.68 10 0 10 C-0.33 10.99 -0.66 11.98 -1 13 C-1.02686553 11.02090602 -1.04633375 9.04171029 -1.0625 7.0625 C-1.07410156 5.96035156 -1.08570313 4.85820312 -1.09765625 3.72265625 C-1 1 -1 1 0 0 Z " fill="#F98E45" transform="translate(361,171)"/>
<path d="M0 0 C1.65 0 3.3 0 5 0 C5 0.66 5 1.32 5 2 C8.3 2 11.6 2 15 2 C15 1.34 15 0.68 15 0 C15.99 0 16.98 0 18 0 C18 0.99 18 1.98 18 3 C15.56242587 3.02698422 13.12515085 3.04683099 10.6875 3.0625 C9.99720703 3.07087891 9.30691406 3.07925781 8.59570312 3.08789062 C5.4516975 3.10307906 3.00579981 3.00193327 0 2 C0 1.34 0 0.68 0 0 Z " fill="#FCB889" transform="translate(330,156)"/>
<path d="M0 0 C0.66 0.33 1.32 0.66 2 1 C0.68 2.32 -0.64 3.64 -2 5 C-2.99 4.67 -3.98 4.34 -5 4 C-5 4.99 -5 5.98 -5 7 C-5.99 7 -6.98 7 -8 7 C-8 6.01 -8 5.02 -8 4 C-7.34 4 -6.68 4 -6 4 C-6 3.01 -6 2.02 -6 1 C-4.7934375 1.0309375 -4.7934375 1.0309375 -3.5625 1.0625 C-1.06645115 1.29633621 -1.06645115 1.29633621 0 0 Z " fill="#3D91D0" transform="translate(193,88)"/>
<path d="M0 0 C0.99 0 1.98 0 3 0 C3 3.3 3 6.6 3 10 C2.01 10 1.02 10 0 10 C0 6.7 0 3.4 0 0 Z " fill="#626262" transform="translate(412,352)"/>
<path d="M0 0 C0.99 0 1.98 0 3 0 C3 3.3 3 6.6 3 10 C2.01 10 1.02 10 0 10 C0 6.7 0 3.4 0 0 Z " fill="#D3D3D3" transform="translate(314,321)"/>
<path d="M0 0 C0.66 0 1.32 0 2 0 C2.33 4.29 2.66 8.58 3 13 C2.01 13 1.02 13 0 13 C0 8.71 0 4.42 0 0 Z " fill="#B4B4B4" transform="translate(80,331)"/>
<path d="M0 0 C0.99 0 1.98 0 3 0 C3 0.99 3 1.98 3 3 C0.36 3 -2.28 3 -5 3 C-5 3.66 -5 4.32 -5 5 C-6.65 5 -8.3 5 -10 5 C-10 4.01 -10 3.02 -10 2 C-6.7 2 -3.4 2 0 2 C0 1.34 0 0.68 0 0 Z " fill="#FBC9A7" transform="translate(289,273)"/>
<path d="M0 0 C4.95 0 9.9 0 15 0 C15 0.33 15 0.66 15 1 C12.36 1 9.72 1 7 1 C7 1.66 7 2.32 7 3 C4.69 3 2.38 3 0 3 C0 2.01 0 1.02 0 0 Z " fill="#FDC199" transform="translate(239,247)"/>
<path d="M0 0 C0.99 0 1.98 0 3 0 C3 0.99 3 1.98 3 3 C1.35 3 -0.3 3 -2 3 C-2 3.99 -2 4.98 -2 6 C-2.99 6 -3.98 6 -5 6 C-5 6.66 -5 7.32 -5 8 C-5.66 8 -6.32 8 -7 8 C-7 7.01 -7 6.02 -7 5 C-6.34 5 -5.68 5 -5 5 C-5 4.01 -5 3.02 -5 2 C-3.35 2 -1.7 2 0 2 C0 1.34 0 0.68 0 0 Z " fill="#FAB586" transform="translate(289,232)"/>
<path d="M0 0 C0.99 0 1.98 0 3 0 C3 2.64 3 5.28 3 8 C2.34 8 1.68 8 1 8 C1 9.65 1 11.3 1 13 C0.67 13 0.34 13 0 13 C0 8.71 0 4.42 0 0 Z " fill="#FCEFE2" transform="translate(366,125)"/>
<path d="M0 0 C4 0 8 0 12 0 C11.67 0.99 11.34 1.98 11 3 C8.03 3 5.06 3 2 3 C2 2.34 2 1.68 2 1 C1.34 0.67 0.68 0.34 0 0 Z " fill="#52ABE2" transform="translate(203,237)"/>
<path d="M0 0 C2.64 0 5.28 0 8 0 C8 0.66 8 1.32 8 2 C6.35 2.33 4.7 2.66 3 3 C3 3.66 3 4.32 3 5 C2.01 5 1.02 5 0 5 C0 3.35 0 1.7 0 0 Z " fill="#FCD6BC" transform="translate(243,184)"/>
<path d="M0 0 C3.63 0 7.26 0 11 0 C11 0.33 11 0.66 11 1 C9.02 1 7.04 1 5 1 C5 1.66 5 2.32 5 3 C3.35 3 1.7 3 0 3 C0 3.66 0 4.32 0 5 C-0.66 5 -1.32 5 -2 5 C-2 4.01 -2 3.02 -2 2 C-1.34 2 -0.68 2 0 2 C0 1.34 0 0.68 0 0 Z " fill="#616161" transform="translate(136,311)"/>
<path d="M0 0 C1.65 0 3.3 0 5 0 C5 0.66 5 1.32 5 2 C7.97 2.495 7.97 2.495 11 3 C11 3.66 11 4.32 11 5 C6.55129785 5.39253254 3.85756507 4.15305957 0 2 C0 1.34 0 0.68 0 0 Z " fill="#56BEF0" transform="translate(228,235)"/>
<path d="M0 0 C3.63 0 7.26 0 11 0 C10.01 0.33 9.02 0.66 8 1 C8 1.66 8 2.32 8 3 C5.36 3 2.72 3 0 3 C0 2.01 0 1.02 0 0 Z " fill="#FCC8A4" transform="translate(256,181)"/>
<path d="M0 0 C2.64 0 5.28 0 8 0 C8 0.99 8 1.98 8 3 C4.37 3 0.74 3 -3 3 C-2.01 2.67 -1.02 2.34 0 2 C0 1.34 0 0.68 0 0 Z " fill="#FCCAA9" transform="translate(274,176)"/>
<path d="M0 0 C0.99 0 1.98 0 3 0 C3 1.65 3 3.3 3 5 C2.34 5 1.68 5 1 5 C1 6.98 1 8.96 1 11 C0.01 11 -0.98 11 -2 11 C-2 10.01 -2 9.02 -2 8 C-1.34 8 -0.68 8 0 8 C0 5.36 0 2.72 0 0 Z " fill="#B0CDE5" transform="translate(164,120)"/>
<path d="M0 0 C0.99 0 1.98 0 3 0 C3 0.99 3 1.98 3 3 C1.35 3 -0.3 3 -2 3 C-2 3.66 -2 4.32 -2 5 C-3.65 5 -5.3 5 -7 5 C-7 4.01 -7 3.02 -7 2 C-4.69 2 -2.38 2 0 2 C0 1.34 0 0.68 0 0 Z " fill="#FA9A5C" transform="translate(299,268)"/>
<path d="M0 0 C0.66 0 1.32 0 2 0 C2 0.66 2 1.32 2 2 C2.99 2 3.98 2 5 2 C5 2.66 5 3.32 5 4 C4.34 4 3.68 4 3 4 C3 5.98 3 7.96 3 10 C2.67 9.01 2.34 8.02 2 7 C1.34 7 0.68 7 0 7 C0 4.69 0 2.38 0 0 Z " fill="#F8863B" transform="translate(167,215)"/>
<path d="M0 0 C0.99 0 1.98 0 3 0 C3 1.65 3 3.3 3 5 C3.66 5 4.32 5 5 5 C5 6.65 5 8.3 5 10 C4.01 10 3.02 10 2 10 C2 7.69 2 5.38 2 3 C1.34 3 0.68 3 0 3 C0 2.01 0 1.02 0 0 Z " fill="#AAD2EA" transform="translate(195,194)"/>
<path d="M0 0 C0.99 0 1.98 0 3 0 C3 0.99 3 1.98 3 3 C2.01 3 1.02 3 0 3 C0 3.66 0 4.32 0 5 C-1.32 5.33 -2.64 5.66 -4 6 C-4 6.66 -4 7.32 -4 8 C-4.99 8 -5.98 8 -7 8 C-7 7.34 -7 6.68 -7 6 C-6.360625 5.896875 -5.72125 5.79375 -5.0625 5.6875 C-4.381875 5.460625 -3.70125 5.23375 -3 5 C-2.67 4.01 -2.34 3.02 -2 2 C-1.34 2 -0.68 2 0 2 C0 1.34 0 0.68 0 0 Z " fill="#39CCF7" transform="translate(317,89)"/>
<path d="M0 0 C0.99 0 1.98 0 3 0 C3 0.66 3 1.32 3 2 C2.34 2 1.68 2 1 2 C1 5.3 1 8.6 1 12 C1.66 12 2.32 12 3 12 C3 12.99 3 13.98 3 15 C2.01 15 1.02 15 0 15 C0 10.05 0 5.1 0 0 Z " fill="#4A4A4A" transform="translate(317,319)"/>
<path d="M0 0 C0.99 0 1.98 0 3 0 C3 0.99 3 1.98 3 3 C3.66 3 4.32 3 5 3 C5 4.65 5 6.3 5 8 C5.66 8 6.32 8 7 8 C7 8.99 7 9.98 7 11 C6.01 11 5.02 11 4 11 C4 9.35 4 7.7 4 6 C3.34 6 2.68 6 2 6 C2 4.35 2 2.7 2 1 C1.34 0.67 0.68 0.34 0 0 Z " fill="#545454" transform="translate(236,313)"/>
<path d="M0 0 C0.680625 0.165 1.36125 0.33 2.0625 0.5 C5.4164822 1.07089059 8.60389805 1.06659023 12 1 C12 1.66 12 2.32 12 3 C8.37 3 4.74 3 1 3 C0.67 2.01 0.34 1.02 0 0 Z " fill="#F6ECE5" transform="translate(193,237)"/>
<path d="M0 0 C0.99 0 1.98 0 3 0 C3 2.64 3 5.28 3 8 C2.01 8 1.02 8 0 8 C0 5.36 0 2.72 0 0 Z " fill="#242424" transform="translate(266,341)"/>
<path d="M0 0 C2.64 0 5.28 0 8 0 C8 0.99 8 1.98 8 3 C5.36 3 2.72 3 0 3 C0 2.01 0 1.02 0 0 Z " fill="#FD8A3D" transform="translate(271,275)"/>
<path d="M0 0 C0.99 0 1.98 0 3 0 C2.42655063 2.86724686 2.1385485 3.8614515 0 6 C-1.32 6 -2.64 6 -4 6 C-4 5.01 -4 4.02 -4 3 C-2.68 3 -1.36 3 0 3 C0 2.01 0 1.02 0 0 Z " fill="#FBD4B7" transform="translate(317,257)"/>
<path d="M0 0 C0.99 0 1.98 0 3 0 C3 2.64 3 5.28 3 8 C2.01 8 1.02 8 0 8 C0 5.36 0 2.72 0 0 Z " fill="#F89653" transform="translate(353,201)"/>
<path d="M0 0 C3.3 0 6.6 0 10 0 C9.01 0.33 8.02 0.66 7 1 C7 1.66 7 2.32 7 3 C4.69 3 2.38 3 0 3 C0 2.01 0 1.02 0 0 Z " fill="#FCD1B4" transform="translate(310,163)"/>
<path d="M0 0 C0 0.66 0 1.32 0 2 C-3.96 2 -7.92 2 -12 2 C-12 2.66 -12 3.32 -12 4 C-12.99 4 -13.98 4 -15 4 C-15 3.01 -15 2.02 -15 1 C-12.8750734 0.83240016 -10.75005624 0.66594799 -8.625 0.5 C-7.44164062 0.4071875 -6.25828125 0.314375 -5.0390625 0.21875 C-3.36213157 0.09804546 -1.68126944 0 0 0 Z " fill="#FCC49F" transform="translate(271,243)"/>
<path d="M0 0 C0.99 0 1.98 0 3 0 C3 0.99 3 1.98 3 3 C0.69 3 -1.62 3 -4 3 C-4 3.66 -4 4.32 -4 5 C-4.99 5 -5.98 5 -7 5 C-7 4.01 -7 3.02 -7 2 C-4.69 2 -2.38 2 0 2 C0 1.34 0 0.68 0 0 Z " fill="#B4D6EC" transform="translate(225,64)"/>
<path d="M0 0 C0.99 0 1.98 0 3 0 C3 2.31 3 4.62 3 7 C2.01 7 1.02 7 0 7 C0 4.69 0 2.38 0 0 Z " fill="#272727" transform="translate(266,324)"/>
<path d="M0 0 C1.32 0.33 2.64 0.66 4 1 C2 3 2 3 0.0546875 3.1953125 C-1.96354167 3.13020833 -3.98177083 3.06510417 -6 3 C-6 3.66 -6 4.32 -6 5 C-6.66 5 -7.32 5 -8 5 C-8 4.01 -8 3.02 -8 2 C-5.36 2 -2.72 2 0 2 C0 1.34 0 0.68 0 0 Z " fill="#FB8C43" transform="translate(295,171)"/>
<path d="M0 0 C2.64 0 5.28 0 8 0 C7.01 0.33 6.02 0.66 5 1 C5 1.66 5 2.32 5 3 C2.36 3 -0.28 3 -3 3 C-2.01 2.67 -1.02 2.34 0 2 C0 1.34 0 0.68 0 0 Z " fill="#BCDDF0" transform="translate(239,100)"/>
<path d="M0 0 C0.99 0 1.98 0 3 0 C3 0.99 3 1.98 3 3 C3.66 3 4.32 3 5 3 C5 4.32 5 5.64 5 7 C4.01 7 3.02 7 2 7 C2 5.68 2 4.36 2 3 C1.34 3 0.68 3 0 3 C0 2.01 0 1.02 0 0 Z " fill="#69DCF9" transform="translate(320,82)"/>
<path d="M0 0 C1.65 0 3.3 0 5 0 C5 0.66 5 1.32 5 2 C5.66 2 6.32 2 7 2 C7 2.99 7 3.98 7 5 C6.34 5 5.68 5 5 5 C5 4.34 5 3.68 5 3 C3.35 3 1.7 3 0 3 C0 2.01 0 1.02 0 0 Z " fill="#31BEEF" transform="translate(292,67)"/>
<path d="M0 0 C1.65 0 3.3 0 5 0 C5 0.99 5 1.98 5 3 C1.7 3 -1.6 3 -5 3 C-5 2.67 -5 2.34 -5 2 C-3.35 2 -1.7 2 0 2 C0 1.34 0 0.68 0 0 Z " fill="#FC873C" transform="translate(259,245)"/>
<path d="M0 0 C0.99 0 1.98 0 3 0 C3 0.66 3 1.32 3 2 C4.65 2 6.3 2 8 2 C8 2.99 8 3.98 8 5 C7.01 5 6.02 5 5 5 C5 4.34 5 3.68 5 3 C3.35 3 1.7 3 0 3 C0 2.01 0 1.02 0 0 Z " fill="#D1ECF8" transform="translate(228,232)"/>
<path d="M0 0 C0.33 0.66 0.66 1.32 1 2 C1.99 2 2.98 2 4 2 C4 2.99 4 3.98 4 5 C3.34 5 2.68 5 2 5 C1.67 6.32 1.34 7.64 1 9 C-0.4783226 6.04335481 -0.06032783 3.25770263 0 0 Z " fill="#F7A971" transform="translate(165,210)"/>
<path d="M0 0 C0.99 0 1.98 0 3 0 C3 1.65 3 3.3 3 5 C3.66 5 4.32 5 5 5 C5 5.99 5 6.98 5 8 C4.01 8 3.02 8 2 8 C2 6.35 2 4.7 2 3 C1.34 3 0.68 3 0 3 C0 2.01 0 1.02 0 0 Z " fill="#50A4DB" transform="translate(200,207)"/>
<path d="M0 0 C0.99 0 1.98 0 3 0 C3 0.99 3 1.98 3 3 C0.09399739 4.25664978 -1.79604584 5 -5 5 C-5 4.34 -5 3.68 -5 3 C-3.35 2.67 -1.7 2.34 0 2 C0 1.34 0 0.68 0 0 Z " fill="#FB863C" transform="translate(251,184)"/>
<path d="M0 0 C0.99 0 1.98 0 3 0 C3 1.65 3 3.3 3 5 C2.34 5 1.68 5 1 5 C1 6.65 1 8.3 1 10 C0.67 10 0.34 10 0 10 C0 6.7 0 3.4 0 0 Z " fill="#FACDAD" transform="translate(363,166)"/>
<path d="M0 0 C3.3 0 6.6 0 10 0 C10 0.99 10 1.98 10 3 C8.35 3 6.7 3 5 3 C5 2.34 5 1.68 5 1 C3.35 1 1.7 1 0 1 C0 0.67 0 0.34 0 0 Z " fill="#D7EFF8" transform="translate(267,100)"/>
<path d="M0 0 C0.99 0 1.98 0 3 0 C3 0.99 3 1.98 3 3 C3.99 3 4.98 3 6 3 C6 3.99 6 4.98 6 6 C5.01 6 4.02 6 3 6 C3 5.34 3 4.68 3 4 C2.01 3.67 1.02 3.34 0 3 C0 2.01 0 1.02 0 0 Z " fill="#42C7F3" transform="translate(299,69)"/>
<path d="M0 0 C3.3 0 6.6 0 10 0 C10 0.99 10 1.98 10 3 C8.35 3 6.7 3 5 3 C5 2.34 5 1.68 5 1 C3.35 1 1.7 1 0 1 C0 0.67 0 0.34 0 0 Z " fill="#94D8F2" transform="translate(274,61)"/>
<path d="M0 0 C0.33 0 0.66 0 1 0 C1 3.3 1 6.6 1 10 C1.66 10 2.32 10 3 10 C3 10.99 3 11.98 3 13 C2.01 13 1.02 13 0 13 C0 8.71 0 4.42 0 0 Z " fill="#E2E2E2" transform="translate(314,352)"/>
<path d="M0 0 C0.33 0 0.66 0 1 0 C1 4.29 1 8.58 1 13 C0.01 13 -0.98 13 -2 13 C-2 12.01 -2 11.02 -2 10 C-1.34 10 -0.68 10 0 10 C0 6.7 0 3.4 0 0 Z " fill="#E2E2E2" transform="translate(304,352)"/>
<path d="M0 0 C0.33 0 0.66 0 1 0 C1 4.29 1 8.58 1 13 C0.01 13 -0.98 13 -2 13 C-2 12.01 -2 11.02 -2 10 C-1.34 10 -0.68 10 0 10 C0 6.7 0 3.4 0 0 Z " fill="#E0E0E0" transform="translate(177,311)"/>
<path d="M0 0 C1.32 0.33 2.64 0.66 4 1 C4 1.66 4 2.32 4 3 C4.99 3 5.98 3 7 3 C7 3.99 7 4.98 7 6 C6.01 6 5.02 6 4 6 C4 5.34 4 4.68 4 4 C3.01 3.67 2.02 3.34 1 3 C0.67 2.01 0.34 1.02 0 0 Z " fill="#FBD6BA" transform="translate(208,265)"/>
<path d="M0 0 C0.66 0 1.32 0 2 0 C2 0.99 2 1.98 2 3 C-1 5 -1 5 -5 5 C-5.33 5.66 -5.66 6.32 -6 7 C-6 6.01 -6 5.02 -6 4 C-5.01 4 -4.02 4 -3 4 C-3 3.34 -3 2.68 -3 2 C-2.01 2 -1.02 2 0 2 C0 1.34 0 0.68 0 0 Z " fill="#FA9958" transform="translate(300,225)"/>
<path d="M0 0 C1.32 0 2.64 0 4 0 C4 1.65 4 3.3 4 5 C3.34 5 2.68 5 2 5 C2 4.34 2 3.68 2 3 C0.35 3 -1.3 3 -3 3 C-2.01 2.67 -1.02 2.34 0 2 C0 1.34 0 0.68 0 0 Z " fill="#FA9B5B" transform="translate(313,204)"/>
<path d="M0 0 C1.98 0 3.96 0 6 0 C6 0.99 6 1.98 6 3 C2.25 4.125 2.25 4.125 0 3 C0 2.01 0 1.02 0 0 Z " fill="#F9EBDE" transform="translate(159,204)"/>
<path d="M0 0 C1.32 0.33 2.64 0.66 4 1 C2.87548273 3.9719385 1.77706209 6.33440687 0 9 C0 6.03 0 3.06 0 0 Z " fill="#1563B4" transform="translate(162,133)"/>
<path d="M0 0 C0.66 0 1.32 0 2 0 C1.37240135 2.92879371 0.41377341 5.36095629 -1 8 C-1.66 7.67 -2.32 7.34 -3 7 C-3 5.68 -3 4.36 -3 3 C-2.01 3 -1.02 3 0 3 C0 2.01 0 1.02 0 0 Z " fill="#1166B8" transform="translate(170,117)"/>
<path d="M0 0 C5.41538462 -0.36923077 5.41538462 -0.36923077 8.375 1.5 C8.91125 1.995 9.4475 2.49 10 3 C7.69 3 5.38 3 3 3 C3 2.34 3 1.68 3 1 C2.01 0.67 1.02 0.34 0 0 Z " fill="#FCA76D" transform="translate(233,275)"/>
<path d="M0 0 C3.3 0.33 6.6 0.66 10 1 C10 1.99 10 2.98 10 4 C9.01 4 8.02 4 7 4 C7 3.34 7 2.68 7 2 C4.69 2 2.38 2 0 2 C0 1.34 0 0.68 0 0 Z " fill="#FCCBAB" transform="translate(203,243)"/>
<path d="M0 0 C0.99 0 1.98 0 3 0 C3 0.66 3 1.32 3 2 C3.99 2 4.98 2 6 2 C6 2.99 6 3.98 6 5 C5.01 5 4.02 5 3 5 C3 4.34 3 3.68 3 3 C2.01 3 1.02 3 0 3 C0 2.01 0 1.02 0 0 Z " fill="#5BA7DC" transform="translate(197,232)"/>
<path d="M0 0 C0.99 0 1.98 0 3 0 C3 0.99 3 1.98 3 3 C3.66 3 4.32 3 5 3 C5 3.99 5 4.98 5 6 C4.01 6 3.02 6 2 6 C2 5.01 2 4.02 2 3 C1.34 3 0.68 3 0 3 C0 2.01 0 1.02 0 0 Z " fill="#FA9452" transform="translate(182,229)"/>
<path d="M0 0 C0.99 0 1.98 0 3 0 C3 0.99 3 1.98 3 3 C3.66 3 4.32 3 5 3 C5 3.99 5 4.98 5 6 C4.01 6 3.02 6 2 6 C2 5.01 2 4.02 2 3 C1.34 3 0.68 3 0 3 C0 2.01 0 1.02 0 0 Z " fill="#F99C5D" transform="translate(172,219)"/>
<path d="M0 0 C0.99 0 1.98 0 3 0 C3 0.99 3 1.98 3 3 C1.02 3 -0.96 3 -3 3 C-3 3.66 -3 4.32 -3 5 C-3.66 5 -4.32 5 -5 5 C-5 4.01 -5 3.02 -5 2 C-3.35 2 -1.7 2 0 2 C0 1.34 0 0.68 0 0 Z " fill="#FBCEAE" transform="translate(302,166)"/>
<path d="M0 0 C0.66 0 1.32 0 2 0 C2 1.65 2 3.3 2 5 C1.34 5 0.68 5 0 5 C0 6.65 0 8.3 0 10 C-0.33 10 -0.66 10 -1 10 C-1.125 2.25 -1.125 2.25 0 0 Z " fill="#3478BE" transform="translate(195,138)"/>
<path d="M0 0 C0.99 0 1.98 0 3 0 C3 0.99 3 1.98 3 3 C2.34 3 1.68 3 1 3 C1 3.99 1 4.98 1 6 C0.01 6 -0.98 6 -2 6 C-2 5.01 -2 4.02 -2 3 C-1.34 3 -0.68 3 0 3 C0 2.01 0 1.02 0 0 Z " fill="#85BEE5" transform="translate(197,79)"/>
<path d="M0 0 C0.99 0 1.98 0 3 0 C3 1.65 3 3.3 3 5 C3.66 5 4.32 5 5 5 C5 5.66 5 6.32 5 7 C4.01 7 3.02 7 2 7 C2 5.68 2 4.36 2 3 C1.34 3 0.68 3 0 3 C0 2.01 0 1.02 0 0 Z " fill="#BDBDBD" transform="translate(369,334)"/>
<path d="M0 0 C0.99 0 1.98 0 3 0 C3 0.99 3 1.98 3 3 C2.34 3 1.68 3 1 3 C1 3.66 1 4.32 1 5 C0.01 5 -0.98 5 -2 5 C-2 4.01 -2 3.02 -2 2 C-1.34 2 -0.68 2 0 2 C0 1.34 0 0.68 0 0 Z " fill="#757575" transform="translate(419,311)"/>
<path d="M0 0 C5.75 0.75 5.75 0.75 8 3 C5.36 3 2.72 3 0 3 C0 2.01 0 1.02 0 0 Z " fill="#FDEADD" transform="translate(243,278)"/>
<path d="M0 0 C2.64 0.33 5.28 0.66 8 1 C8 1.66 8 2.32 8 3 C6.02 3 4.04 3 2 3 C2 2.34 2 1.68 2 1 C1.34 0.67 0.68 0.34 0 0 Z " fill="#FCA368" transform="translate(213,247)"/>
<path d="M0 0 C0.66 0 1.32 0 2 0 C2 0.66 2 1.32 2 2 C2.99 2 3.98 2 5 2 C5 2.99 5 3.98 5 5 C3.68 5 2.36 5 1 5 C0.67 3.35 0.34 1.7 0 0 Z " fill="#89C5E9" transform="translate(208,217)"/>
<path d="M0 0 C0.99 0 1.98 0 3 0 C3 0.99 3 1.98 3 3 C2.34 3 1.68 3 1 3 C1 4.32 1 5.64 1 7 C0.01 7 -0.98 7 -2 7 C-2 6.34 -2 5.68 -2 5 C-1.34 5 -0.68 5 0 5 C0 3.35 0 1.7 0 0 Z " fill="#F89655" transform="translate(350,212)"/>
<path d="M0 0 C0.99 0 1.98 0 3 0 C3 0.66 3 1.32 3 2 C4.65 2 6.3 2 8 2 C8 2.66 8 3.32 8 4 C5.36 3.67 2.72 3.34 0 3 C0 2.01 0 1.02 0 0 Z " fill="#FBC39D" transform="translate(256,197)"/>
<path d="M0 0 C0.33 0 0.66 0 1 0 C1 2.64 1 5.28 1 8 C1.66 8 2.32 8 3 8 C3 8.99 3 9.98 3 11 C2.01 11 1.02 11 0 11 C0 7.37 0 3.74 0 0 Z " fill="#99BBDB" transform="translate(159,176)"/>
<path d="M0 0 C1.65 0 3.3 0 5 0 C5 0.66 5 1.32 5 2 C5.66 2.33 6.32 2.66 7 3 C4.69 3 2.38 3 0 3 C0 2.01 0 1.02 0 0 Z " fill="#FCC9A7" transform="translate(356,163)"/>
<path d="M0 0 C0.99 0 1.98 0 3 0 C3 0.99 3 1.98 3 3 C2.34 3 1.68 3 1 3 C1 4.32 1 5.64 1 7 C0.01 7 -0.98 7 -2 7 C-2 6.34 -2 5.68 -2 5 C-1.34 5 -0.68 5 0 5 C0 3.35 0 1.7 0 0 Z " fill="#BDD5E9" transform="translate(197,138)"/>
<path d="M0 0 C0.33 0 0.66 0 1 0 C1 1.65 1 3.3 1 5 C-0.65 5 -2.3 5 -4 5 C-4 4.01 -4 3.02 -4 2 C-2.68 2 -1.36 2 0 2 C0 1.34 0 0.68 0 0 Z " fill="#3FC4F0" transform="translate(301,108)"/>
</svg>
